<?xml version="1.0" encoding="UTF-8" standalone="no"?>
<!DOCTYPE svg PUBLIC "-//W3C//DTD SVG 1.1//EN"
 "http://www.w3.org/Graphics/SVG/1.1/DTD/svg11.dtd">
<!-- Generated by graphviz version 2.40.1 (20161225.0304)
 -->
<!-- Title: dependencies Pages: 1 -->
<svg width="510pt" height="211pt"
 viewBox="0.00 0.00 510.00 211.00" xmlns="http://www.w3.org/2000/svg" xmlns:xlink="http://www.w3.org/1999/xlink">
<g id="graph0" class="graph" transform="scale(1 1) rotate(0) translate(4 207)">
<title>dependencies</title>
<polygon fill="#ffffff" stroke="transparent" points="-4,4 -4,-207 506,-207 506,4 -4,4"/>
<text text-anchor="start" x="230.0091" y="-42.4" font-family="sans-serif" font-weight="bold" font-size="14.00" fill="#000000">Legend</text>
<polygon fill="#ffffb3" stroke="transparent" points="17,-10 17,-30 37,-30 37,-10 17,-10"/>
<text text-anchor="start" x="40.629" y="-15.4" font-family="sans-serif" font-size="14.00" fill="#000000"> &#160;Declarations</text>
<polygon fill="#8dd3c7" stroke="transparent" points="130,-10 130,-30 150,-30 150,-10 130,-10"/>
<text text-anchor="start" x="153.7251" y="-15.4" font-family="sans-serif" font-size="14.00" fill="#000000"> &#160;Module</text>
<polygon fill="#80b1d3" stroke="transparent" points="216,-10 216,-30 236,-30 236,-10 216,-10"/>
<text text-anchor="start" x="239.7812" y="-15.4" font-family="sans-serif" font-size="14.00" fill="#000000"> &#160;Bootstrap</text>
<polygon fill="#fdb462" stroke="transparent" points="313,-10 313,-30 333,-30 333,-10 313,-10"/>
<text text-anchor="start" x="336.6732" y="-15.4" font-family="sans-serif" font-size="14.00" fill="#000000"> &#160;Providers</text>
<polygon fill="#fb8072" stroke="transparent" points="409,-10 409,-30 429,-30 429,-10 409,-10"/>
<text text-anchor="start" x="432.7258" y="-15.4" font-family="sans-serif" font-size="14.00" fill="#000000"> &#160;Exports</text>
<g id="clust1" class="cluster">
<title>cluster_ResourcesModule</title>
<polygon fill="none" stroke="#000000" stroke-dasharray="1,5" points="8,-70 8,-195 494,-195 494,-70 8,-70"/>
</g>
<g id="clust2" class="cluster">
<title>cluster_ResourcesModule_declarations</title>
<polygon fill="none" stroke="#000000" points="332,-78 332,-130 486,-130 486,-78 332,-78"/>
</g>
<g id="clust4" class="cluster">
<title>cluster_ResourcesModule_imports</title>
<polygon fill="none" stroke="#000000" points="16,-78 16,-130 324,-130 324,-78 16,-78"/>
</g>
<!-- ResourcesComponent -->
<g id="node1" class="node">
<title>ResourcesComponent</title>
<polygon fill="#ffffb3" stroke="#000000" points="478.3627,-122 339.6373,-122 339.6373,-86 478.3627,-86 478.3627,-122"/>
<text text-anchor="middle" x="409" y="-99.8" font-family="Times,serif" font-size="14.00" fill="#000000">ResourcesComponent</text>
</g>
<!-- ResourcesModule -->
<g id="node2" class="node">
<title>ResourcesModule</title>
<polygon fill="#8dd3c7" stroke="#000000" points="318.58,-187 315.58,-191 294.58,-191 291.58,-187 201.42,-187 201.42,-151 318.58,-151 318.58,-187"/>
<text text-anchor="middle" x="260" y="-164.8" font-family="Times,serif" font-size="14.00" fill="#000000">ResourcesModule</text>
</g>
<!-- ResourcesComponent&#45;&gt;ResourcesModule -->
<g id="edge1" class="edge">
<title>ResourcesComponent&#45;&gt;ResourcesModule</title>
<path fill="none" stroke="#000000" d="M409,-122.1061C409,-141.3391 409,-169 409,-169 409,-169 328.8887,-169 328.8887,-169"/>
<polygon fill="#000000" stroke="#000000" points="328.8888,-165.5001 318.8887,-169 328.8887,-172.5001 328.8888,-165.5001"/>
</g>
<!-- CommonModule -->
<g id="node3" class="node">
<title>CommonModule</title>
<polygon fill="#8dd3c7" stroke="#000000" points="315.6681,-122 312.6681,-126 291.6681,-126 288.6681,-122 204.3319,-122 204.3319,-86 315.6681,-86 315.6681,-122"/>
<text text-anchor="middle" x="260" y="-99.8" font-family="Times,serif" font-size="14.00" fill="#000000">CommonModule</text>
</g>
<!-- CommonModule&#45;&gt;ResourcesModule -->
<g id="edge2" class="edge">
<title>CommonModule&#45;&gt;ResourcesModule</title>
<path fill="none" stroke="#000000" d="M260,-122.1061C260,-122.1061 260,-140.991 260,-140.991"/>
<polygon fill="#000000" stroke="#000000" points="256.5001,-140.9909 260,-150.991 263.5001,-140.991 256.5001,-140.9909"/>
</g>
<!-- ResourcesRoutingModule -->
<g id="node4" class="node">
<title>ResourcesRoutingModule</title>
<polygon fill="#8dd3c7" stroke="#000000" points="186.1979,-122 183.1979,-126 162.1979,-126 159.1979,-122 23.8021,-122 23.8021,-86 186.1979,-86 186.1979,-122"/>
<text text-anchor="middle" x="105" y="-99.8" font-family="Times,serif" font-size="14.00" fill="#000000">ResourcesRoutingModule</text>
</g>
<!-- ResourcesRoutingModule&#45;&gt;ResourcesModule -->
<g id="edge3" class="edge">
<title>ResourcesRoutingModule&#45;&gt;ResourcesModule</title>
<path fill="none" stroke="#000000" d="M105,-122.1061C105,-141.3391 105,-169 105,-169 105,-169 191.4011,-169 191.4011,-169"/>
<polygon fill="#000000" stroke="#000000" points="191.4012,-172.5001 201.4011,-169 191.4011,-165.5001 191.4012,-172.5001"/>
</g>
</g>
</svg>
