<?xml version="1.0" encoding="UTF-8" standalone="no"?>
<!DOCTYPE svg PUBLIC "-//W3C//DTD SVG 1.1//EN"
 "http://www.w3.org/Graphics/SVG/1.1/DTD/svg11.dtd">
<!-- Generated by graphviz version 2.40.1 (20161225.0304)
 -->
<!-- Title: dependencies Pages: 1 -->
<svg width="504pt" height="211pt"
 viewBox="0.00 0.00 504.00 211.00" xmlns="http://www.w3.org/2000/svg" xmlns:xlink="http://www.w3.org/1999/xlink">
<g id="graph0" class="graph" transform="scale(1 1) rotate(0) translate(4 207)">
<title>dependencies</title>
<polygon fill="#ffffff" stroke="transparent" points="-4,4 -4,-207 500,-207 500,4 -4,4"/>
<text text-anchor="start" x="227.0091" y="-42.4" font-family="sans-serif" font-weight="bold" font-size="14.00" fill="#000000">Legend</text>
<polygon fill="#ffffb3" stroke="transparent" points="14,-10 14,-30 34,-30 34,-10 14,-10"/>
<text text-anchor="start" x="37.629" y="-15.4" font-family="sans-serif" font-size="14.00" fill="#000000"> &#160;Declarations</text>
<polygon fill="#8dd3c7" stroke="transparent" points="127,-10 127,-30 147,-30 147,-10 127,-10"/>
<text text-anchor="start" x="150.7251" y="-15.4" font-family="sans-serif" font-size="14.00" fill="#000000"> &#160;Module</text>
<polygon fill="#80b1d3" stroke="transparent" points="213,-10 213,-30 233,-30 233,-10 213,-10"/>
<text text-anchor="start" x="236.7812" y="-15.4" font-family="sans-serif" font-size="14.00" fill="#000000"> &#160;Bootstrap</text>
<polygon fill="#fdb462" stroke="transparent" points="310,-10 310,-30 330,-30 330,-10 310,-10"/>
<text text-anchor="start" x="333.6732" y="-15.4" font-family="sans-serif" font-size="14.00" fill="#000000"> &#160;Providers</text>
<polygon fill="#fb8072" stroke="transparent" points="406,-10 406,-30 426,-30 426,-10 406,-10"/>
<text text-anchor="start" x="429.7258" y="-15.4" font-family="sans-serif" font-size="14.00" fill="#000000"> &#160;Exports</text>
<g id="clust1" class="cluster">
<title>cluster_PasswordsModule</title>
<polygon fill="none" stroke="#000000" stroke-dasharray="1,5" points="68,-70 68,-195 428,-195 428,-70 68,-70"/>
</g>
<g id="clust2" class="cluster">
<title>cluster_PasswordsModule_declarations</title>
<polygon fill="none" stroke="#000000" points="264,-78 264,-130 420,-130 420,-78 264,-78"/>
</g>
<g id="clust4" class="cluster">
<title>cluster_PasswordsModule_imports</title>
<polygon fill="none" stroke="#000000" points="76,-78 76,-130 256,-130 256,-78 76,-78"/>
</g>
<!-- PasswordsComponent -->
<g id="node1" class="node">
<title>PasswordsComponent</title>
<polygon fill="#ffffb3" stroke="#000000" points="412.4313,-122 271.5687,-122 271.5687,-86 412.4313,-86 412.4313,-122"/>
<text text-anchor="middle" x="342" y="-99.8" font-family="Times,serif" font-size="14.00" fill="#000000">PasswordsComponent</text>
</g>
<!-- PasswordsModule -->
<g id="node2" class="node">
<title>PasswordsModule</title>
<polygon fill="#8dd3c7" stroke="#000000" points="313.1485,-187 310.1485,-191 289.1485,-191 286.1485,-187 194.8515,-187 194.8515,-151 313.1485,-151 313.1485,-187"/>
<text text-anchor="middle" x="254" y="-164.8" font-family="Times,serif" font-size="14.00" fill="#000000">PasswordsModule</text>
</g>
<!-- PasswordsComponent&#45;&gt;PasswordsModule -->
<g id="edge1" class="edge">
<title>PasswordsComponent&#45;&gt;PasswordsModule</title>
<path fill="none" stroke="#000000" d="M292.5544,-122.1061C292.5544,-122.1061 292.5544,-140.991 292.5544,-140.991"/>
<polygon fill="#000000" stroke="#000000" points="289.0544,-140.9909 292.5544,-150.991 296.0544,-140.991 289.0544,-140.9909"/>
</g>
<!-- PasswordsRoutingModule -->
<g id="node3" class="node">
<title>PasswordsRoutingModule</title>
<polygon fill="#8dd3c7" stroke="#000000" points="247.766,-122 244.766,-126 223.766,-126 220.766,-122 84.234,-122 84.234,-86 247.766,-86 247.766,-122"/>
<text text-anchor="middle" x="166" y="-99.8" font-family="Times,serif" font-size="14.00" fill="#000000">PasswordsRoutingModule</text>
</g>
<!-- PasswordsRoutingModule&#45;&gt;PasswordsModule -->
<g id="edge2" class="edge">
<title>PasswordsRoutingModule&#45;&gt;PasswordsModule</title>
<path fill="none" stroke="#000000" d="M221.2795,-122.1061C221.2795,-122.1061 221.2795,-140.991 221.2795,-140.991"/>
<polygon fill="#000000" stroke="#000000" points="217.7795,-140.9909 221.2795,-150.991 224.7795,-140.991 217.7795,-140.9909"/>
</g>
</g>
</svg>
