<?xml version="1.0" encoding="UTF-8" standalone="no"?>
<!DOCTYPE svg PUBLIC "-//W3C//DTD SVG 1.1//EN"
 "http://www.w3.org/Graphics/SVG/1.1/DTD/svg11.dtd">
<!-- Generated by graphviz version 2.40.1 (20161225.0304)
 -->
<!-- Title: dependencies Pages: 1 -->
<svg width="1903pt" height="211pt"
 viewBox="0.00 0.00 1903.00 211.00" xmlns="http://www.w3.org/2000/svg" xmlns:xlink="http://www.w3.org/1999/xlink">
<g id="graph0" class="graph" transform="scale(1 1) rotate(0) translate(4 207)">
<title>dependencies</title>
<polygon fill="#ffffff" stroke="transparent" points="-4,4 -4,-207 1899,-207 1899,4 -4,4"/>
<text text-anchor="start" x="926.5091" y="-42.4" font-family="sans-serif" font-weight="bold" font-size="14.00" fill="#000000">Legend</text>
<polygon fill="#ffffb3" stroke="transparent" points="713.5,-10 713.5,-30 733.5,-30 733.5,-10 713.5,-10"/>
<text text-anchor="start" x="737.129" y="-15.4" font-family="sans-serif" font-size="14.00" fill="#000000"> &#160;Declarations</text>
<polygon fill="#8dd3c7" stroke="transparent" points="826.5,-10 826.5,-30 846.5,-30 846.5,-10 826.5,-10"/>
<text text-anchor="start" x="850.2251" y="-15.4" font-family="sans-serif" font-size="14.00" fill="#000000"> &#160;Module</text>
<polygon fill="#80b1d3" stroke="transparent" points="912.5,-10 912.5,-30 932.5,-30 932.5,-10 912.5,-10"/>
<text text-anchor="start" x="936.2812" y="-15.4" font-family="sans-serif" font-size="14.00" fill="#000000"> &#160;Bootstrap</text>
<polygon fill="#fdb462" stroke="transparent" points="1009.5,-10 1009.5,-30 1029.5,-30 1029.5,-10 1009.5,-10"/>
<text text-anchor="start" x="1033.1732" y="-15.4" font-family="sans-serif" font-size="14.00" fill="#000000"> &#160;Providers</text>
<polygon fill="#fb8072" stroke="transparent" points="1105.5,-10 1105.5,-30 1125.5,-30 1125.5,-10 1105.5,-10"/>
<text text-anchor="start" x="1129.2258" y="-15.4" font-family="sans-serif" font-size="14.00" fill="#000000"> &#160;Exports</text>
<g id="clust1" class="cluster">
<title>cluster_AdminModule</title>
<polygon fill="none" stroke="#000000" stroke-dasharray="1,5" points="8,-70 8,-195 1887,-195 1887,-70 8,-70"/>
</g>
<g id="clust2" class="cluster">
<title>cluster_AdminModule_declarations</title>
<polygon fill="none" stroke="#000000" points="716,-78 716,-130 1879,-130 1879,-78 716,-78"/>
</g>
<g id="clust10" class="cluster">
<title>cluster_AdminModule_imports</title>
<polygon fill="none" stroke="#000000" points="432,-78 432,-130 708,-130 708,-78 432,-78"/>
</g>
<g id="clust13" class="cluster">
<title>cluster_AdminModule_providers</title>
<polygon fill="none" stroke="#000000" points="16,-78 16,-130 424,-130 424,-78 16,-78"/>
</g>
<!-- AdminComponent -->
<g id="node1" class="node">
<title>AdminComponent</title>
<polygon fill="#ffffb3" stroke="#000000" points="1871.2204,-122 1750.7796,-122 1750.7796,-86 1871.2204,-86 1871.2204,-122"/>
<text text-anchor="middle" x="1811" y="-99.8" font-family="Times,serif" font-size="14.00" fill="#000000">AdminComponent</text>
</g>
<!-- AdminModule -->
<g id="node8" class="node">
<title>AdminModule</title>
<polygon fill="#8dd3c7" stroke="#000000" points="1026.4386,-187 1023.4386,-191 1002.4386,-191 999.4386,-187 927.5614,-187 927.5614,-151 1026.4386,-151 1026.4386,-187"/>
<text text-anchor="middle" x="977" y="-164.8" font-family="Times,serif" font-size="14.00" fill="#000000">AdminModule</text>
</g>
<!-- AdminComponent&#45;&gt;AdminModule -->
<g id="edge1" class="edge">
<title>AdminComponent&#45;&gt;AdminModule</title>
<path fill="none" stroke="#000000" d="M1811,-122.0908C1811,-145.1328 1811,-182 1811,-182 1811,-182 1036.3645,-182 1036.3645,-182"/>
<polygon fill="#000000" stroke="#000000" points="1036.3645,-178.5001 1026.3645,-182 1036.3644,-185.5001 1036.3645,-178.5001"/>
</g>
<!-- AdminUsersComponent -->
<g id="node2" class="node">
<title>AdminUsersComponent</title>
<polygon fill="#ffffb3" stroke="#000000" points="1733.0912,-122 1580.9088,-122 1580.9088,-86 1733.0912,-86 1733.0912,-122"/>
<text text-anchor="middle" x="1657" y="-99.8" font-family="Times,serif" font-size="14.00" fill="#000000">AdminUsersComponent</text>
</g>
<!-- AdminUsersComponent&#45;&gt;AdminModule -->
<g id="edge2" class="edge">
<title>AdminUsersComponent&#45;&gt;AdminModule</title>
<path fill="none" stroke="#000000" d="M1657,-122.2843C1657,-143.3211 1657,-175 1657,-175 1657,-175 1036.4517,-175 1036.4517,-175"/>
<polygon fill="#000000" stroke="#000000" points="1036.4517,-171.5001 1026.4517,-175 1036.4516,-178.5001 1036.4517,-171.5001"/>
</g>
<!-- AdminProjectsComponent -->
<g id="node3" class="node">
<title>AdminProjectsComponent</title>
<polygon fill="#ffffb3" stroke="#000000" points="1562.8187,-122 1397.1813,-122 1397.1813,-86 1562.8187,-86 1562.8187,-122"/>
<text text-anchor="middle" x="1480" y="-99.8" font-family="Times,serif" font-size="14.00" fill="#000000">AdminProjectsComponent</text>
</g>
<!-- AdminProjectsComponent&#45;&gt;AdminModule -->
<g id="edge3" class="edge">
<title>AdminProjectsComponent&#45;&gt;AdminModule</title>
<path fill="none" stroke="#000000" d="M1480,-122.1061C1480,-141.3391 1480,-169 1480,-169 1480,-169 1036.6062,-169 1036.6062,-169"/>
<polygon fill="#000000" stroke="#000000" points="1036.6062,-165.5001 1026.6062,-169 1036.6061,-172.5001 1036.6062,-165.5001"/>
</g>
<!-- UsersTableComponent -->
<g id="node4" class="node">
<title>UsersTableComponent</title>
<polygon fill="#ffffb3" stroke="#000000" points="1379.5758,-122 1234.4242,-122 1234.4242,-86 1379.5758,-86 1379.5758,-122"/>
<text text-anchor="middle" x="1307" y="-99.8" font-family="Times,serif" font-size="14.00" fill="#000000">UsersTableComponent</text>
</g>
<!-- UsersTableComponent&#45;&gt;AdminModule -->
<g id="edge4" class="edge">
<title>UsersTableComponent&#45;&gt;AdminModule</title>
<path fill="none" stroke="#000000" d="M1307,-122.0225C1307,-139.3734 1307,-163 1307,-163 1307,-163 1036.4043,-163 1036.4043,-163"/>
<polygon fill="#000000" stroke="#000000" points="1036.4044,-159.5001 1026.4043,-163 1036.4043,-166.5001 1036.4044,-159.5001"/>
</g>
<!-- UserDetailComponent -->
<g id="node5" class="node">
<title>UserDetailComponent</title>
<polygon fill="#ffffb3" stroke="#000000" points="1215.9664,-122 1074.0336,-122 1074.0336,-86 1215.9664,-86 1215.9664,-122"/>
<text text-anchor="middle" x="1145" y="-99.8" font-family="Times,serif" font-size="14.00" fill="#000000">UserDetailComponent</text>
</g>
<!-- UserDetailComponent&#45;&gt;AdminModule -->
<g id="edge5" class="edge">
<title>UserDetailComponent&#45;&gt;AdminModule</title>
<path fill="none" stroke="#000000" d="M1145,-122.2396C1145,-137.5706 1145,-157 1145,-157 1145,-157 1036.4969,-157 1036.4969,-157"/>
<polygon fill="#000000" stroke="#000000" points="1036.4969,-153.5001 1026.4969,-157 1036.4969,-160.5001 1036.4969,-153.5001"/>
</g>
<!-- ProjectsTableComponent -->
<g id="node6" class="node">
<title>ProjectsTableComponent</title>
<polygon fill="#ffffb3" stroke="#000000" points="1056.3033,-122 897.6967,-122 897.6967,-86 1056.3033,-86 1056.3033,-122"/>
<text text-anchor="middle" x="977" y="-99.8" font-family="Times,serif" font-size="14.00" fill="#000000">ProjectsTableComponent</text>
</g>
<!-- ProjectsTableComponent&#45;&gt;AdminModule -->
<g id="edge6" class="edge">
<title>ProjectsTableComponent&#45;&gt;AdminModule</title>
<path fill="none" stroke="#000000" d="M977,-122.1061C977,-122.1061 977,-140.991 977,-140.991"/>
<polygon fill="#000000" stroke="#000000" points="973.5001,-140.9909 977,-150.991 980.5001,-140.991 973.5001,-140.9909"/>
</g>
<!-- ProjectDetailComponent -->
<g id="node7" class="node">
<title>ProjectDetailComponent</title>
<polygon fill="#ffffb3" stroke="#000000" points="879.6937,-122 724.3063,-122 724.3063,-86 879.6937,-86 879.6937,-122"/>
<text text-anchor="middle" x="802" y="-99.8" font-family="Times,serif" font-size="14.00" fill="#000000">ProjectDetailComponent</text>
</g>
<!-- ProjectDetailComponent&#45;&gt;AdminModule -->
<g id="edge7" class="edge">
<title>ProjectDetailComponent&#45;&gt;AdminModule</title>
<path fill="none" stroke="#000000" d="M802,-122.2396C802,-137.5706 802,-157 802,-157 802,-157 917.3201,-157 917.3201,-157"/>
<polygon fill="#000000" stroke="#000000" points="917.3202,-160.5001 927.3201,-157 917.3201,-153.5001 917.3202,-160.5001"/>
</g>
<!-- AdminRoutingModule -->
<g id="node9" class="node">
<title>AdminRoutingModule</title>
<polygon fill="#8dd3c7" stroke="#000000" points="699.5561,-122 696.5561,-126 675.5561,-126 672.5561,-122 556.4439,-122 556.4439,-86 699.5561,-86 699.5561,-122"/>
<text text-anchor="middle" x="628" y="-99.8" font-family="Times,serif" font-size="14.00" fill="#000000">AdminRoutingModule</text>
</g>
<!-- AdminRoutingModule&#45;&gt;AdminModule -->
<g id="edge8" class="edge">
<title>AdminRoutingModule&#45;&gt;AdminModule</title>
<path fill="none" stroke="#000000" d="M628,-122.0225C628,-139.3734 628,-163 628,-163 628,-163 917.737,-163 917.737,-163"/>
<polygon fill="#000000" stroke="#000000" points="917.7371,-166.5001 927.737,-163 917.737,-159.5001 917.7371,-166.5001"/>
</g>
<!-- SharedModule -->
<g id="node10" class="node">
<title>SharedModule</title>
<polygon fill="#8dd3c7" stroke="#000000" points="538.4231,-122 535.4231,-126 514.4231,-126 511.4231,-122 439.5769,-122 439.5769,-86 538.4231,-86 538.4231,-122"/>
<text text-anchor="middle" x="489" y="-99.8" font-family="Times,serif" font-size="14.00" fill="#000000">SharedModule</text>
</g>
<!-- SharedModule&#45;&gt;AdminModule -->
<g id="edge9" class="edge">
<title>SharedModule&#45;&gt;AdminModule</title>
<path fill="none" stroke="#000000" d="M489,-122.1061C489,-141.3391 489,-169 489,-169 489,-169 917.5224,-169 917.5224,-169"/>
<polygon fill="#000000" stroke="#000000" points="917.5224,-172.5001 927.5224,-169 917.5224,-165.5001 917.5224,-172.5001"/>
</g>
<!-- AdminUsersService -->
<g id="node11" class="node">
<title>AdminUsersService</title>
<ellipse fill="#fdb462" stroke="#000000" cx="327" cy="-104" rx="88.6005" ry="18"/>
<text text-anchor="middle" x="327" y="-99.8" font-family="Times,serif" font-size="14.00" fill="#000000">AdminUsersService</text>
</g>
<!-- AdminUsersService&#45;&gt;AdminModule -->
<g id="edge10" class="edge">
<title>AdminUsersService&#45;&gt;AdminModule</title>
<path fill="none" stroke="#000000" d="M327,-122.2843C327,-143.3211 327,-175 327,-175 327,-175 917.6109,-175 917.6109,-175"/>
<polygon fill="#000000" stroke="#000000" points="917.6109,-178.5001 927.6109,-175 917.6108,-171.5001 917.6109,-178.5001"/>
</g>
<!-- AdminProjectsService -->
<g id="node12" class="node">
<title>AdminProjectsService</title>
<ellipse fill="#fdb462" stroke="#000000" cx="122" cy="-104" rx="97.8479" ry="18"/>
<text text-anchor="middle" x="122" y="-99.8" font-family="Times,serif" font-size="14.00" fill="#000000">AdminProjectsService</text>
</g>
<!-- AdminProjectsService&#45;&gt;AdminModule -->
<g id="edge11" class="edge">
<title>AdminProjectsService&#45;&gt;AdminModule</title>
<path fill="none" stroke="#000000" d="M122,-122.0908C122,-145.1328 122,-182 122,-182 122,-182 917.6487,-182 917.6487,-182"/>
<polygon fill="#000000" stroke="#000000" points="917.6487,-185.5001 927.6487,-182 917.6487,-178.5001 917.6487,-185.5001"/>
</g>
</g>
</svg>
