<?xml version="1.0" encoding="UTF-8" standalone="no"?>
<!DOCTYPE svg PUBLIC "-//W3C//DTD SVG 1.1//EN"
 "http://www.w3.org/Graphics/SVG/1.1/DTD/svg11.dtd">
<!-- Generated by graphviz version 2.40.1 (20161225.0304)
 -->
<!-- Title: dependencies Pages: 1 -->
<svg width="2003pt" height="211pt"
 viewBox="0.00 0.00 2003.00 211.00" xmlns="http://www.w3.org/2000/svg" xmlns:xlink="http://www.w3.org/1999/xlink">
<g id="graph0" class="graph" transform="scale(1 1) rotate(0) translate(4 207)">
<title>dependencies</title>
<polygon fill="#ffffff" stroke="transparent" points="-4,4 -4,-207 1999,-207 1999,4 -4,4"/>
<text text-anchor="start" x="976.5091" y="-42.4" font-family="sans-serif" font-weight="bold" font-size="14.00" fill="#000000">Legend</text>
<polygon fill="#ffffb3" stroke="transparent" points="763.5,-10 763.5,-30 783.5,-30 783.5,-10 763.5,-10"/>
<text text-anchor="start" x="787.129" y="-15.4" font-family="sans-serif" font-size="14.00" fill="#000000"> &#160;Declarations</text>
<polygon fill="#8dd3c7" stroke="transparent" points="876.5,-10 876.5,-30 896.5,-30 896.5,-10 876.5,-10"/>
<text text-anchor="start" x="900.2251" y="-15.4" font-family="sans-serif" font-size="14.00" fill="#000000"> &#160;Module</text>
<polygon fill="#80b1d3" stroke="transparent" points="962.5,-10 962.5,-30 982.5,-30 982.5,-10 962.5,-10"/>
<text text-anchor="start" x="986.2812" y="-15.4" font-family="sans-serif" font-size="14.00" fill="#000000"> &#160;Bootstrap</text>
<polygon fill="#fdb462" stroke="transparent" points="1059.5,-10 1059.5,-30 1079.5,-30 1079.5,-10 1059.5,-10"/>
<text text-anchor="start" x="1083.1732" y="-15.4" font-family="sans-serif" font-size="14.00" fill="#000000"> &#160;Providers</text>
<polygon fill="#fb8072" stroke="transparent" points="1155.5,-10 1155.5,-30 1175.5,-30 1175.5,-10 1155.5,-10"/>
<text text-anchor="start" x="1179.2258" y="-15.4" font-family="sans-serif" font-size="14.00" fill="#000000"> &#160;Exports</text>
<g id="clust1" class="cluster">
<title>cluster_AdminModule</title>
<polygon fill="none" stroke="#000000" stroke-dasharray="1,5" points="8,-70 8,-195 1987,-195 1987,-70 8,-70"/>
</g>
<g id="clust2" class="cluster">
<title>cluster_AdminModule_declarations</title>
<polygon fill="none" stroke="#000000" points="716,-78 716,-130 1979,-130 1979,-78 716,-78"/>
</g>
<g id="clust11" class="cluster">
<title>cluster_AdminModule_imports</title>
<polygon fill="none" stroke="#000000" points="432,-78 432,-130 708,-130 708,-78 432,-78"/>
</g>
<g id="clust14" class="cluster">
<title>cluster_AdminModule_providers</title>
<polygon fill="none" stroke="#000000" points="16,-78 16,-130 424,-130 424,-78 16,-78"/>
</g>
<!-- AdminComponent -->
<g id="node1" class="node">
<title>AdminComponent</title>
<polygon fill="#ffffb3" stroke="#000000" points="1971.2204,-122 1850.7796,-122 1850.7796,-86 1971.2204,-86 1971.2204,-122"/>
<text text-anchor="middle" x="1911" y="-99.8" font-family="Times,serif" font-size="14.00" fill="#000000">AdminComponent</text>
</g>
<!-- AdminModule -->
<g id="node9" class="node">
<title>AdminModule</title>
<polygon fill="#8dd3c7" stroke="#000000" points="1038.4386,-187 1035.4386,-191 1014.4386,-191 1011.4386,-187 939.5614,-187 939.5614,-151 1038.4386,-151 1038.4386,-187"/>
<text text-anchor="middle" x="989" y="-164.8" font-family="Times,serif" font-size="14.00" fill="#000000">AdminModule</text>
</g>
<!-- AdminComponent&#45;&gt;AdminModule -->
<g id="edge1" class="edge">
<title>AdminComponent&#45;&gt;AdminModule</title>
<path fill="none" stroke="#000000" d="M1911,-122.0908C1911,-145.1328 1911,-182 1911,-182 1911,-182 1048.2448,-182 1048.2448,-182"/>
<polygon fill="#000000" stroke="#000000" points="1048.2448,-178.5001 1038.2448,-182 1048.2447,-185.5001 1048.2448,-178.5001"/>
</g>
<!-- AdminUsersComponent -->
<g id="node2" class="node">
<title>AdminUsersComponent</title>
<polygon fill="#ffffb3" stroke="#000000" points="1833.0912,-122 1680.9088,-122 1680.9088,-86 1833.0912,-86 1833.0912,-122"/>
<text text-anchor="middle" x="1757" y="-99.8" font-family="Times,serif" font-size="14.00" fill="#000000">AdminUsersComponent</text>
</g>
<!-- AdminUsersComponent&#45;&gt;AdminModule -->
<g id="edge2" class="edge">
<title>AdminUsersComponent&#45;&gt;AdminModule</title>
<path fill="none" stroke="#000000" d="M1757,-122.2843C1757,-143.3211 1757,-175 1757,-175 1757,-175 1048.5041,-175 1048.5041,-175"/>
<polygon fill="#000000" stroke="#000000" points="1048.5042,-171.5001 1038.5041,-175 1048.5041,-178.5001 1048.5042,-171.5001"/>
</g>
<!-- AdminProjectsComponent -->
<g id="node3" class="node">
<title>AdminProjectsComponent</title>
<polygon fill="#ffffb3" stroke="#000000" points="1662.8187,-122 1497.1813,-122 1497.1813,-86 1662.8187,-86 1662.8187,-122"/>
<text text-anchor="middle" x="1580" y="-99.8" font-family="Times,serif" font-size="14.00" fill="#000000">AdminProjectsComponent</text>
</g>
<!-- AdminProjectsComponent&#45;&gt;AdminModule -->
<g id="edge3" class="edge">
<title>AdminProjectsComponent&#45;&gt;AdminModule</title>
<path fill="none" stroke="#000000" d="M1580,-122.1061C1580,-141.3391 1580,-169 1580,-169 1580,-169 1048.3718,-169 1048.3718,-169"/>
<polygon fill="#000000" stroke="#000000" points="1048.3718,-165.5001 1038.3718,-169 1048.3718,-172.5001 1048.3718,-165.5001"/>
</g>
<!-- UsersTableComponent -->
<g id="node4" class="node">
<title>UsersTableComponent</title>
<polygon fill="#ffffb3" stroke="#000000" points="1479.5758,-122 1334.4242,-122 1334.4242,-86 1479.5758,-86 1479.5758,-122"/>
<text text-anchor="middle" x="1407" y="-99.8" font-family="Times,serif" font-size="14.00" fill="#000000">UsersTableComponent</text>
</g>
<!-- UsersTableComponent&#45;&gt;AdminModule -->
<g id="edge4" class="edge">
<title>UsersTableComponent&#45;&gt;AdminModule</title>
<path fill="none" stroke="#000000" d="M1407,-122.0225C1407,-139.3734 1407,-163 1407,-163 1407,-163 1048.5915,-163 1048.5915,-163"/>
<polygon fill="#000000" stroke="#000000" points="1048.5916,-159.5001 1038.5915,-163 1048.5915,-166.5001 1048.5916,-159.5001"/>
</g>
<!-- UserDetailComponent -->
<g id="node5" class="node">
<title>UserDetailComponent</title>
<polygon fill="#ffffb3" stroke="#000000" points="1315.9664,-122 1174.0336,-122 1174.0336,-86 1315.9664,-86 1315.9664,-122"/>
<text text-anchor="middle" x="1245" y="-99.8" font-family="Times,serif" font-size="14.00" fill="#000000">UserDetailComponent</text>
</g>
<!-- UserDetailComponent&#45;&gt;AdminModule -->
<g id="edge5" class="edge">
<title>UserDetailComponent&#45;&gt;AdminModule</title>
<path fill="none" stroke="#000000" d="M1245,-122.2396C1245,-137.5706 1245,-157 1245,-157 1245,-157 1048.3594,-157 1048.3594,-157"/>
<polygon fill="#000000" stroke="#000000" points="1048.3594,-153.5001 1038.3594,-157 1048.3593,-160.5001 1048.3594,-153.5001"/>
</g>
<!-- ProjectsTableComponent -->
<g id="node6" class="node">
<title>ProjectsTableComponent</title>
<polygon fill="#ffffb3" stroke="#000000" points="1156.3033,-122 997.6967,-122 997.6967,-86 1156.3033,-86 1156.3033,-122"/>
<text text-anchor="middle" x="1077" y="-99.8" font-family="Times,serif" font-size="14.00" fill="#000000">ProjectsTableComponent</text>
</g>
<!-- ProjectsTableComponent&#45;&gt;AdminModule -->
<g id="edge6" class="edge">
<title>ProjectsTableComponent&#45;&gt;AdminModule</title>
<path fill="none" stroke="#000000" d="M1018.0337,-122.1061C1018.0337,-122.1061 1018.0337,-140.991 1018.0337,-140.991"/>
<polygon fill="#000000" stroke="#000000" points="1014.5337,-140.9909 1018.0337,-150.991 1021.5337,-140.991 1014.5337,-140.9909"/>
</g>
<!-- ProjectDetailComponent -->
<g id="node7" class="node">
<title>ProjectDetailComponent</title>
<polygon fill="#ffffb3" stroke="#000000" points="979.6937,-122 824.3063,-122 824.3063,-86 979.6937,-86 979.6937,-122"/>
<text text-anchor="middle" x="902" y="-99.8" font-family="Times,serif" font-size="14.00" fill="#000000">ProjectDetailComponent</text>
</g>
<!-- ProjectDetailComponent&#45;&gt;AdminModule -->
<g id="edge7" class="edge">
<title>ProjectDetailComponent&#45;&gt;AdminModule</title>
<path fill="none" stroke="#000000" d="M959.689,-122.1061C959.689,-122.1061 959.689,-140.991 959.689,-140.991"/>
<polygon fill="#000000" stroke="#000000" points="956.1891,-140.9909 959.689,-150.991 963.1891,-140.991 956.1891,-140.9909"/>
</g>
<!-- SectionPipe -->
<g id="node8" class="node">
<title>SectionPipe</title>
<polygon fill="#ffffb3" stroke="#000000" points="806.3809,-122 723.6191,-122 723.6191,-86 806.3809,-86 806.3809,-122"/>
<text text-anchor="middle" x="765" y="-99.8" font-family="Times,serif" font-size="14.00" fill="#000000">SectionPipe</text>
</g>
<!-- SectionPipe&#45;&gt;AdminModule -->
<g id="edge8" class="edge">
<title>SectionPipe&#45;&gt;AdminModule</title>
<path fill="none" stroke="#000000" d="M765,-122.2396C765,-137.5706 765,-157 765,-157 765,-157 929.5649,-157 929.5649,-157"/>
<polygon fill="#000000" stroke="#000000" points="929.565,-160.5001 939.5649,-157 929.5649,-153.5001 929.565,-160.5001"/>
</g>
<!-- AdminRoutingModule -->
<g id="node10" class="node">
<title>AdminRoutingModule</title>
<polygon fill="#8dd3c7" stroke="#000000" points="699.5561,-122 696.5561,-126 675.5561,-126 672.5561,-122 556.4439,-122 556.4439,-86 699.5561,-86 699.5561,-122"/>
<text text-anchor="middle" x="628" y="-99.8" font-family="Times,serif" font-size="14.00" fill="#000000">AdminRoutingModule</text>
</g>
<!-- AdminRoutingModule&#45;&gt;AdminModule -->
<g id="edge9" class="edge">
<title>AdminRoutingModule&#45;&gt;AdminModule</title>
<path fill="none" stroke="#000000" d="M628,-122.0225C628,-139.3734 628,-163 628,-163 628,-163 929.5614,-163 929.5614,-163"/>
<polygon fill="#000000" stroke="#000000" points="929.5615,-166.5001 939.5614,-163 929.5614,-159.5001 929.5615,-166.5001"/>
</g>
<!-- SharedModule -->
<g id="node11" class="node">
<title>SharedModule</title>
<polygon fill="#8dd3c7" stroke="#000000" points="538.4231,-122 535.4231,-126 514.4231,-126 511.4231,-122 439.5769,-122 439.5769,-86 538.4231,-86 538.4231,-122"/>
<text text-anchor="middle" x="489" y="-99.8" font-family="Times,serif" font-size="14.00" fill="#000000">SharedModule</text>
</g>
<!-- SharedModule&#45;&gt;AdminModule -->
<g id="edge10" class="edge">
<title>SharedModule&#45;&gt;AdminModule</title>
<path fill="none" stroke="#000000" d="M489,-122.1061C489,-141.3391 489,-169 489,-169 489,-169 929.6897,-169 929.6897,-169"/>
<polygon fill="#000000" stroke="#000000" points="929.6897,-172.5001 939.6897,-169 929.6897,-165.5001 929.6897,-172.5001"/>
</g>
<!-- AdminUsersService -->
<g id="node12" class="node">
<title>AdminUsersService</title>
<ellipse fill="#fdb462" stroke="#000000" cx="327" cy="-104" rx="88.6005" ry="18"/>
<text text-anchor="middle" x="327" y="-99.8" font-family="Times,serif" font-size="14.00" fill="#000000">AdminUsersService</text>
</g>
<!-- AdminUsersService&#45;&gt;AdminModule -->
<g id="edge11" class="edge">
<title>AdminUsersService&#45;&gt;AdminModule</title>
<path fill="none" stroke="#000000" d="M327,-122.2843C327,-143.3211 327,-175 327,-175 327,-175 929.5131,-175 929.5131,-175"/>
<polygon fill="#000000" stroke="#000000" points="929.5132,-178.5001 939.5131,-175 929.5131,-171.5001 929.5132,-178.5001"/>
</g>
<!-- AdminProjectsService -->
<g id="node13" class="node">
<title>AdminProjectsService</title>
<ellipse fill="#fdb462" stroke="#000000" cx="122" cy="-104" rx="97.8479" ry="18"/>
<text text-anchor="middle" x="122" y="-99.8" font-family="Times,serif" font-size="14.00" fill="#000000">AdminProjectsService</text>
</g>
<!-- AdminProjectsService&#45;&gt;AdminModule -->
<g id="edge12" class="edge">
<title>AdminProjectsService&#45;&gt;AdminModule</title>
<path fill="none" stroke="#000000" d="M122,-122.0908C122,-145.1328 122,-182 122,-182 122,-182 929.5877,-182 929.5877,-182"/>
<polygon fill="#000000" stroke="#000000" points="929.5877,-185.5001 939.5877,-182 929.5877,-178.5001 929.5877,-185.5001"/>
</g>
</g>
</svg>
