<?xml version="1.0" encoding="UTF-8" standalone="no"?>
<!DOCTYPE svg PUBLIC "-//W3C//DTD SVG 1.1//EN"
 "http://www.w3.org/Graphics/SVG/1.1/DTD/svg11.dtd">
<!-- Generated by graphviz version 2.40.1 (20161225.0304)
 -->
<!-- Title: dependencies Pages: 1 -->
<svg width="504pt" height="211pt"
 viewBox="0.00 0.00 504.00 211.00" xmlns="http://www.w3.org/2000/svg" xmlns:xlink="http://www.w3.org/1999/xlink">
<g id="graph0" class="graph" transform="scale(1 1) rotate(0) translate(4 207)">
<title>dependencies</title>
<polygon fill="#ffffff" stroke="transparent" points="-4,4 -4,-207 500,-207 500,4 -4,4"/>
<text text-anchor="start" x="227.0091" y="-42.4" font-family="sans-serif" font-weight="bold" font-size="14.00" fill="#000000">Legend</text>
<polygon fill="#ffffb3" stroke="transparent" points="14,-10 14,-30 34,-30 34,-10 14,-10"/>
<text text-anchor="start" x="37.629" y="-15.4" font-family="sans-serif" font-size="14.00" fill="#000000"> &#160;Declarations</text>
<polygon fill="#8dd3c7" stroke="transparent" points="127,-10 127,-30 147,-30 147,-10 127,-10"/>
<text text-anchor="start" x="150.7251" y="-15.4" font-family="sans-serif" font-size="14.00" fill="#000000"> &#160;Module</text>
<polygon fill="#80b1d3" stroke="transparent" points="213,-10 213,-30 233,-30 233,-10 213,-10"/>
<text text-anchor="start" x="236.7812" y="-15.4" font-family="sans-serif" font-size="14.00" fill="#000000"> &#160;Bootstrap</text>
<polygon fill="#fdb462" stroke="transparent" points="310,-10 310,-30 330,-30 330,-10 310,-10"/>
<text text-anchor="start" x="333.6732" y="-15.4" font-family="sans-serif" font-size="14.00" fill="#000000"> &#160;Providers</text>
<polygon fill="#fb8072" stroke="transparent" points="406,-10 406,-30 426,-30 426,-10 406,-10"/>
<text text-anchor="start" x="429.7258" y="-15.4" font-family="sans-serif" font-size="14.00" fill="#000000"> &#160;Exports</text>
<g id="clust1" class="cluster">
<title>cluster_AdWordsModule</title>
<polygon fill="none" stroke="#000000" stroke-dasharray="1,5" points="14,-70 14,-195 482,-195 482,-70 14,-70"/>
</g>
<g id="clust2" class="cluster">
<title>cluster_AdWordsModule_declarations</title>
<polygon fill="none" stroke="#000000" points="322,-78 322,-130 474,-130 474,-78 322,-78"/>
</g>
<g id="clust4" class="cluster">
<title>cluster_AdWordsModule_imports</title>
<polygon fill="none" stroke="#000000" points="22,-78 22,-130 314,-130 314,-78 22,-78"/>
</g>
<!-- AdWordsComponent -->
<g id="node1" class="node">
<title>AdWordsComponent</title>
<polygon fill="#ffffb3" stroke="#000000" points="465.759,-122 330.241,-122 330.241,-86 465.759,-86 465.759,-122"/>
<text text-anchor="middle" x="398" y="-99.8" font-family="Times,serif" font-size="14.00" fill="#000000">AdWordsComponent</text>
</g>
<!-- AdWordsModule -->
<g id="node2" class="node">
<title>AdWordsModule</title>
<polygon fill="#8dd3c7" stroke="#000000" points="282.9762,-187 279.9762,-191 258.9762,-191 255.9762,-187 169.0238,-187 169.0238,-151 282.9762,-151 282.9762,-187"/>
<text text-anchor="middle" x="226" y="-164.8" font-family="Times,serif" font-size="14.00" fill="#000000">AdWordsModule</text>
</g>
<!-- AdWordsComponent&#45;&gt;AdWordsModule -->
<g id="edge1" class="edge">
<title>AdWordsComponent&#45;&gt;AdWordsModule</title>
<path fill="none" stroke="#000000" d="M398,-122.1061C398,-141.3391 398,-169 398,-169 398,-169 293.2735,-169 293.2735,-169"/>
<polygon fill="#000000" stroke="#000000" points="293.2735,-165.5001 283.2735,-169 293.2735,-172.5001 293.2735,-165.5001"/>
</g>
<!-- AdWordsRoutingModule -->
<g id="node3" class="node">
<title>AdWordsRoutingModule</title>
<polygon fill="#8dd3c7" stroke="#000000" points="305.594,-122 302.594,-126 281.594,-126 278.594,-122 146.406,-122 146.406,-86 305.594,-86 305.594,-122"/>
<text text-anchor="middle" x="226" y="-99.8" font-family="Times,serif" font-size="14.00" fill="#000000">AdWordsRoutingModule</text>
</g>
<!-- AdWordsRoutingModule&#45;&gt;AdWordsModule -->
<g id="edge2" class="edge">
<title>AdWordsRoutingModule&#45;&gt;AdWordsModule</title>
<path fill="none" stroke="#000000" d="M226,-122.1061C226,-122.1061 226,-140.991 226,-140.991"/>
<polygon fill="#000000" stroke="#000000" points="222.5001,-140.9909 226,-150.991 229.5001,-140.991 222.5001,-140.9909"/>
</g>
<!-- SharedModule -->
<g id="node4" class="node">
<title>SharedModule</title>
<polygon fill="#8dd3c7" stroke="#000000" points="128.4231,-122 125.4231,-126 104.4231,-126 101.4231,-122 29.5769,-122 29.5769,-86 128.4231,-86 128.4231,-122"/>
<text text-anchor="middle" x="79" y="-99.8" font-family="Times,serif" font-size="14.00" fill="#000000">SharedModule</text>
</g>
<!-- SharedModule&#45;&gt;AdWordsModule -->
<g id="edge3" class="edge">
<title>SharedModule&#45;&gt;AdWordsModule</title>
<path fill="none" stroke="#000000" d="M79,-122.1061C79,-141.3391 79,-169 79,-169 79,-169 158.745,-169 158.745,-169"/>
<polygon fill="#000000" stroke="#000000" points="158.7451,-172.5001 168.745,-169 158.745,-165.5001 158.7451,-172.5001"/>
</g>
</g>
</svg>
