<?xml version="1.0" encoding="UTF-8" standalone="no"?>
<!DOCTYPE svg PUBLIC "-//W3C//DTD SVG 1.1//EN"
 "http://www.w3.org/Graphics/SVG/1.1/DTD/svg11.dtd">
<!-- Generated by graphviz version 2.40.1 (20161225.0304)
 -->
<!-- Title: dependencies Pages: 1 -->
<svg width="504pt" height="211pt"
 viewBox="0.00 0.00 504.00 211.00" xmlns="http://www.w3.org/2000/svg" xmlns:xlink="http://www.w3.org/1999/xlink">
<g id="graph0" class="graph" transform="scale(1 1) rotate(0) translate(4 207)">
<title>dependencies</title>
<polygon fill="#ffffff" stroke="transparent" points="-4,4 -4,-207 500,-207 500,4 -4,4"/>
<text text-anchor="start" x="227.0091" y="-42.4" font-family="sans-serif" font-weight="bold" font-size="14.00" fill="#000000">Legend</text>
<polygon fill="#ffffb3" stroke="transparent" points="14,-10 14,-30 34,-30 34,-10 14,-10"/>
<text text-anchor="start" x="37.629" y="-15.4" font-family="sans-serif" font-size="14.00" fill="#000000"> &#160;Declarations</text>
<polygon fill="#8dd3c7" stroke="transparent" points="127,-10 127,-30 147,-30 147,-10 127,-10"/>
<text text-anchor="start" x="150.7251" y="-15.4" font-family="sans-serif" font-size="14.00" fill="#000000"> &#160;Module</text>
<polygon fill="#80b1d3" stroke="transparent" points="213,-10 213,-30 233,-30 233,-10 213,-10"/>
<text text-anchor="start" x="236.7812" y="-15.4" font-family="sans-serif" font-size="14.00" fill="#000000"> &#160;Bootstrap</text>
<polygon fill="#fdb462" stroke="transparent" points="310,-10 310,-30 330,-30 330,-10 310,-10"/>
<text text-anchor="start" x="333.6732" y="-15.4" font-family="sans-serif" font-size="14.00" fill="#000000"> &#160;Providers</text>
<polygon fill="#fb8072" stroke="transparent" points="406,-10 406,-30 426,-30 426,-10 406,-10"/>
<text text-anchor="start" x="429.7258" y="-15.4" font-family="sans-serif" font-size="14.00" fill="#000000"> &#160;Exports</text>
<g id="clust1" class="cluster">
<title>cluster_AdWordsModule</title>
<polygon fill="none" stroke="#000000" stroke-dasharray="1,5" points="72,-70 72,-195 424,-195 424,-70 72,-70"/>
</g>
<g id="clust2" class="cluster">
<title>cluster_AdWordsModule_declarations</title>
<polygon fill="none" stroke="#000000" points="264,-78 264,-130 416,-130 416,-78 264,-78"/>
</g>
<g id="clust4" class="cluster">
<title>cluster_AdWordsModule_imports</title>
<polygon fill="none" stroke="#000000" points="80,-78 80,-130 256,-130 256,-78 80,-78"/>
</g>
<!-- AdWordsComponent -->
<g id="node1" class="node">
<title>AdWordsComponent</title>
<polygon fill="#ffffb3" stroke="#000000" points="407.759,-122 272.241,-122 272.241,-86 407.759,-86 407.759,-122"/>
<text text-anchor="middle" x="340" y="-99.8" font-family="Times,serif" font-size="14.00" fill="#000000">AdWordsComponent</text>
</g>
<!-- AdWordsModule -->
<g id="node2" class="node">
<title>AdWordsModule</title>
<polygon fill="#8dd3c7" stroke="#000000" points="310.9762,-187 307.9762,-191 286.9762,-191 283.9762,-187 197.0238,-187 197.0238,-151 310.9762,-151 310.9762,-187"/>
<text text-anchor="middle" x="254" y="-164.8" font-family="Times,serif" font-size="14.00" fill="#000000">AdWordsModule</text>
</g>
<!-- AdWordsComponent&#45;&gt;AdWordsModule -->
<g id="edge1" class="edge">
<title>AdWordsComponent&#45;&gt;AdWordsModule</title>
<path fill="none" stroke="#000000" d="M291.5544,-122.1061C291.5544,-122.1061 291.5544,-140.991 291.5544,-140.991"/>
<polygon fill="#000000" stroke="#000000" points="288.0544,-140.9909 291.5544,-150.991 295.0544,-140.991 288.0544,-140.9909"/>
</g>
<!-- AdWordsRoutingModule -->
<g id="node3" class="node">
<title>AdWordsRoutingModule</title>
<polygon fill="#8dd3c7" stroke="#000000" points="247.594,-122 244.594,-126 223.594,-126 220.594,-122 88.406,-122 88.406,-86 247.594,-86 247.594,-122"/>
<text text-anchor="middle" x="168" y="-99.8" font-family="Times,serif" font-size="14.00" fill="#000000">AdWordsRoutingModule</text>
</g>
<!-- AdWordsRoutingModule&#45;&gt;AdWordsModule -->
<g id="edge2" class="edge">
<title>AdWordsRoutingModule&#45;&gt;AdWordsModule</title>
<path fill="none" stroke="#000000" d="M222.2795,-122.1061C222.2795,-122.1061 222.2795,-140.991 222.2795,-140.991"/>
<polygon fill="#000000" stroke="#000000" points="218.7795,-140.9909 222.2795,-150.991 225.7795,-140.991 218.7795,-140.9909"/>
</g>
</g>
</svg>
