<?xml version="1.0" encoding="UTF-8" standalone="no"?>
<!DOCTYPE svg PUBLIC "-//W3C//DTD SVG 1.1//EN"
 "http://www.w3.org/Graphics/SVG/1.1/DTD/svg11.dtd">
<!-- Generated by graphviz version 2.40.1 (20161225.0304)
 -->
<!-- Title: dependencies Pages: 1 -->
<svg width="504pt" height="211pt"
 viewBox="0.00 0.00 504.00 211.00" xmlns="http://www.w3.org/2000/svg" xmlns:xlink="http://www.w3.org/1999/xlink">
<g id="graph0" class="graph" transform="scale(1 1) rotate(0) translate(4 207)">
<title>dependencies</title>
<polygon fill="#ffffff" stroke="transparent" points="-4,4 -4,-207 500,-207 500,4 -4,4"/>
<text text-anchor="start" x="227.0091" y="-42.4" font-family="sans-serif" font-weight="bold" font-size="14.00" fill="#000000">Legend</text>
<polygon fill="#ffffb3" stroke="transparent" points="14,-10 14,-30 34,-30 34,-10 14,-10"/>
<text text-anchor="start" x="37.629" y="-15.4" font-family="sans-serif" font-size="14.00" fill="#000000"> &#160;Declarations</text>
<polygon fill="#8dd3c7" stroke="transparent" points="127,-10 127,-30 147,-30 147,-10 127,-10"/>
<text text-anchor="start" x="150.7251" y="-15.4" font-family="sans-serif" font-size="14.00" fill="#000000"> &#160;Module</text>
<polygon fill="#80b1d3" stroke="transparent" points="213,-10 213,-30 233,-30 233,-10 213,-10"/>
<text text-anchor="start" x="236.7812" y="-15.4" font-family="sans-serif" font-size="14.00" fill="#000000"> &#160;Bootstrap</text>
<polygon fill="#fdb462" stroke="transparent" points="310,-10 310,-30 330,-30 330,-10 310,-10"/>
<text text-anchor="start" x="333.6732" y="-15.4" font-family="sans-serif" font-size="14.00" fill="#000000"> &#160;Providers</text>
<polygon fill="#fb8072" stroke="transparent" points="406,-10 406,-30 426,-30 426,-10 406,-10"/>
<text text-anchor="start" x="429.7258" y="-15.4" font-family="sans-serif" font-size="14.00" fill="#000000"> &#160;Exports</text>
<g id="clust1" class="cluster">
<title>cluster_ActionsModule</title>
<polygon fill="none" stroke="#000000" stroke-dasharray="1,5" points="26,-70 26,-195 470,-195 470,-70 26,-70"/>
</g>
<g id="clust2" class="cluster">
<title>cluster_ActionsModule_declarations</title>
<polygon fill="none" stroke="#000000" points="322,-78 322,-130 462,-130 462,-78 322,-78"/>
</g>
<g id="clust4" class="cluster">
<title>cluster_ActionsModule_imports</title>
<polygon fill="none" stroke="#000000" points="34,-78 34,-130 314,-130 314,-78 34,-78"/>
</g>
<!-- ActionsComponent -->
<g id="node1" class="node">
<title>ActionsComponent</title>
<polygon fill="#ffffb3" stroke="#000000" points="454.3795,-122 329.6205,-122 329.6205,-86 454.3795,-86 454.3795,-122"/>
<text text-anchor="middle" x="392" y="-99.8" font-family="Times,serif" font-size="14.00" fill="#000000">ActionsComponent</text>
</g>
<!-- ActionsModule -->
<g id="node2" class="node">
<title>ActionsModule</title>
<polygon fill="#8dd3c7" stroke="#000000" points="283.5968,-187 280.5968,-191 259.5968,-191 256.5968,-187 180.4032,-187 180.4032,-151 283.5968,-151 283.5968,-187"/>
<text text-anchor="middle" x="232" y="-164.8" font-family="Times,serif" font-size="14.00" fill="#000000">ActionsModule</text>
</g>
<!-- ActionsComponent&#45;&gt;ActionsModule -->
<g id="edge1" class="edge">
<title>ActionsComponent&#45;&gt;ActionsModule</title>
<path fill="none" stroke="#000000" d="M392,-122.1061C392,-141.3391 392,-169 392,-169 392,-169 293.9474,-169 293.9474,-169"/>
<polygon fill="#000000" stroke="#000000" points="293.9474,-165.5001 283.9474,-169 293.9474,-172.5001 293.9474,-165.5001"/>
</g>
<!-- ActionsRoutingModule -->
<g id="node3" class="node">
<title>ActionsRoutingModule</title>
<polygon fill="#8dd3c7" stroke="#000000" points="306.2148,-122 303.2148,-126 282.2148,-126 279.2148,-122 157.7852,-122 157.7852,-86 306.2148,-86 306.2148,-122"/>
<text text-anchor="middle" x="232" y="-99.8" font-family="Times,serif" font-size="14.00" fill="#000000">ActionsRoutingModule</text>
</g>
<!-- ActionsRoutingModule&#45;&gt;ActionsModule -->
<g id="edge2" class="edge">
<title>ActionsRoutingModule&#45;&gt;ActionsModule</title>
<path fill="none" stroke="#000000" d="M232,-122.1061C232,-122.1061 232,-140.991 232,-140.991"/>
<polygon fill="#000000" stroke="#000000" points="228.5001,-140.9909 232,-150.991 235.5001,-140.991 228.5001,-140.9909"/>
</g>
<!-- SharedModule -->
<g id="node4" class="node">
<title>SharedModule</title>
<polygon fill="#8dd3c7" stroke="#000000" points="140.4231,-122 137.4231,-126 116.4231,-126 113.4231,-122 41.5769,-122 41.5769,-86 140.4231,-86 140.4231,-122"/>
<text text-anchor="middle" x="91" y="-99.8" font-family="Times,serif" font-size="14.00" fill="#000000">SharedModule</text>
</g>
<!-- SharedModule&#45;&gt;ActionsModule -->
<g id="edge3" class="edge">
<title>SharedModule&#45;&gt;ActionsModule</title>
<path fill="none" stroke="#000000" d="M91,-122.1061C91,-141.3391 91,-169 91,-169 91,-169 170.2974,-169 170.2974,-169"/>
<polygon fill="#000000" stroke="#000000" points="170.2975,-172.5001 180.2974,-169 170.2974,-165.5001 170.2975,-172.5001"/>
</g>
</g>
</svg>
