<?xml version="1.0" encoding="UTF-8" standalone="no"?>
<!DOCTYPE svg PUBLIC "-//W3C//DTD SVG 1.1//EN"
 "http://www.w3.org/Graphics/SVG/1.1/DTD/svg11.dtd">
<!-- Generated by graphviz version 2.40.1 (20161225.0304)
 -->
<!-- Title: dependencies Pages: 1 -->
<svg width="624pt" height="211pt"
 viewBox="0.00 0.00 624.00 211.00" xmlns="http://www.w3.org/2000/svg" xmlns:xlink="http://www.w3.org/1999/xlink">
<g id="graph0" class="graph" transform="scale(1 1) rotate(0) translate(4 207)">
<title>dependencies</title>
<polygon fill="#ffffff" stroke="transparent" points="-4,4 -4,-207 620,-207 620,4 -4,4"/>
<text text-anchor="start" x="287.0091" y="-42.4" font-family="sans-serif" font-weight="bold" font-size="14.00" fill="#000000">Legend</text>
<polygon fill="#ffffb3" stroke="transparent" points="74,-10 74,-30 94,-30 94,-10 74,-10"/>
<text text-anchor="start" x="97.629" y="-15.4" font-family="sans-serif" font-size="14.00" fill="#000000"> &#160;Declarations</text>
<polygon fill="#8dd3c7" stroke="transparent" points="187,-10 187,-30 207,-30 207,-10 187,-10"/>
<text text-anchor="start" x="210.7251" y="-15.4" font-family="sans-serif" font-size="14.00" fill="#000000"> &#160;Module</text>
<polygon fill="#80b1d3" stroke="transparent" points="273,-10 273,-30 293,-30 293,-10 273,-10"/>
<text text-anchor="start" x="296.7812" y="-15.4" font-family="sans-serif" font-size="14.00" fill="#000000"> &#160;Bootstrap</text>
<polygon fill="#fdb462" stroke="transparent" points="370,-10 370,-30 390,-30 390,-10 370,-10"/>
<text text-anchor="start" x="393.6732" y="-15.4" font-family="sans-serif" font-size="14.00" fill="#000000"> &#160;Providers</text>
<polygon fill="#fb8072" stroke="transparent" points="466,-10 466,-30 486,-30 486,-10 466,-10"/>
<text text-anchor="start" x="489.7258" y="-15.4" font-family="sans-serif" font-size="14.00" fill="#000000"> &#160;Exports</text>
<g id="clust1" class="cluster">
<title>cluster_ActionsModule</title>
<polygon fill="none" stroke="#000000" stroke-dasharray="1,5" points="8,-70 8,-195 608,-195 608,-70 8,-70"/>
</g>
<g id="clust2" class="cluster">
<title>cluster_ActionsModule_declarations</title>
<polygon fill="none" stroke="#000000" points="188,-78 188,-130 600,-130 600,-78 188,-78"/>
</g>
<g id="clust6" class="cluster">
<title>cluster_ActionsModule_imports</title>
<polygon fill="none" stroke="#000000" points="16,-78 16,-130 180,-130 180,-78 16,-78"/>
</g>
<!-- ActionsComponent -->
<g id="node1" class="node">
<title>ActionsComponent</title>
<polygon fill="#ffffb3" stroke="#000000" points="592.3795,-122 467.6205,-122 467.6205,-86 592.3795,-86 592.3795,-122"/>
<text text-anchor="middle" x="530" y="-99.8" font-family="Times,serif" font-size="14.00" fill="#000000">ActionsComponent</text>
</g>
<!-- ActionsModule -->
<g id="node4" class="node">
<title>ActionsModule</title>
<polygon fill="#8dd3c7" stroke="#000000" points="367.5968,-187 364.5968,-191 343.5968,-191 340.5968,-187 264.4032,-187 264.4032,-151 367.5968,-151 367.5968,-187"/>
<text text-anchor="middle" x="316" y="-164.8" font-family="Times,serif" font-size="14.00" fill="#000000">ActionsModule</text>
</g>
<!-- ActionsComponent&#45;&gt;ActionsModule -->
<g id="edge1" class="edge">
<title>ActionsComponent&#45;&gt;ActionsModule</title>
<path fill="none" stroke="#000000" d="M530,-122.1061C530,-141.3391 530,-169 530,-169 530,-169 377.8034,-169 377.8034,-169"/>
<polygon fill="#000000" stroke="#000000" points="377.8035,-165.5001 367.8034,-169 377.8034,-172.5001 377.8035,-165.5001"/>
</g>
<!-- CalendarComponent -->
<g id="node2" class="node">
<title>CalendarComponent</title>
<polygon fill="#ffffb3" stroke="#000000" points="449.8641,-122 318.1359,-122 318.1359,-86 449.8641,-86 449.8641,-122"/>
<text text-anchor="middle" x="384" y="-99.8" font-family="Times,serif" font-size="14.00" fill="#000000">CalendarComponent</text>
</g>
<!-- CalendarComponent&#45;&gt;ActionsModule -->
<g id="edge2" class="edge">
<title>CalendarComponent&#45;&gt;ActionsModule</title>
<path fill="none" stroke="#000000" d="M342.8082,-122.1061C342.8082,-122.1061 342.8082,-140.991 342.8082,-140.991"/>
<polygon fill="#000000" stroke="#000000" points="339.3083,-140.9909 342.8082,-150.991 346.3083,-140.991 339.3083,-140.9909"/>
</g>
<!-- DayComponent -->
<g id="node3" class="node">
<title>DayComponent</title>
<polygon fill="#ffffb3" stroke="#000000" points="300.1542,-122 195.8458,-122 195.8458,-86 300.1542,-86 300.1542,-122"/>
<text text-anchor="middle" x="248" y="-99.8" font-family="Times,serif" font-size="14.00" fill="#000000">DayComponent</text>
</g>
<!-- DayComponent&#45;&gt;ActionsModule -->
<g id="edge3" class="edge">
<title>DayComponent&#45;&gt;ActionsModule</title>
<path fill="none" stroke="#000000" d="M282.3892,-122.1061C282.3892,-122.1061 282.3892,-140.991 282.3892,-140.991"/>
<polygon fill="#000000" stroke="#000000" points="278.8893,-140.9909 282.3892,-150.991 285.8893,-140.991 278.8893,-140.9909"/>
</g>
<!-- ActionsRoutingModule -->
<g id="node5" class="node">
<title>ActionsRoutingModule</title>
<polygon fill="#8dd3c7" stroke="#000000" points="172.2148,-122 169.2148,-126 148.2148,-126 145.2148,-122 23.7852,-122 23.7852,-86 172.2148,-86 172.2148,-122"/>
<text text-anchor="middle" x="98" y="-99.8" font-family="Times,serif" font-size="14.00" fill="#000000">ActionsRoutingModule</text>
</g>
<!-- ActionsRoutingModule&#45;&gt;ActionsModule -->
<g id="edge4" class="edge">
<title>ActionsRoutingModule&#45;&gt;ActionsModule</title>
<path fill="none" stroke="#000000" d="M98,-122.1061C98,-141.3391 98,-169 98,-169 98,-169 254.337,-169 254.337,-169"/>
<polygon fill="#000000" stroke="#000000" points="254.3371,-172.5001 264.337,-169 254.337,-165.5001 254.3371,-172.5001"/>
</g>
</g>
</svg>
