<?xml version="1.0" encoding="UTF-8" standalone="no"?>
<!DOCTYPE svg PUBLIC "-//W3C//DTD SVG 1.1//EN"
 "http://www.w3.org/Graphics/SVG/1.1/DTD/svg11.dtd">
<!-- Generated by graphviz version 2.40.1 (20161225.0304)
 -->
<!-- Title: dependencies Pages: 1 -->
<svg width="637pt" height="284pt"
 viewBox="0.00 0.00 637.00 284.00" xmlns="http://www.w3.org/2000/svg" xmlns:xlink="http://www.w3.org/1999/xlink">
<g id="graph0" class="graph" transform="scale(1 1) rotate(0) translate(4 280)">
<title>dependencies</title>
<polygon fill="#ffffff" stroke="transparent" points="-4,4 -4,-280 633,-280 633,4 -4,4"/>
<text text-anchor="start" x="293.5091" y="-42.4" font-family="sans-serif" font-weight="bold" font-size="14.00" fill="#000000">Legend</text>
<polygon fill="#ffffb3" stroke="transparent" points="80.5,-10 80.5,-30 100.5,-30 100.5,-10 80.5,-10"/>
<text text-anchor="start" x="104.129" y="-15.4" font-family="sans-serif" font-size="14.00" fill="#000000"> &#160;Declarations</text>
<polygon fill="#8dd3c7" stroke="transparent" points="193.5,-10 193.5,-30 213.5,-30 213.5,-10 193.5,-10"/>
<text text-anchor="start" x="217.2251" y="-15.4" font-family="sans-serif" font-size="14.00" fill="#000000"> &#160;Module</text>
<polygon fill="#80b1d3" stroke="transparent" points="279.5,-10 279.5,-30 299.5,-30 299.5,-10 279.5,-10"/>
<text text-anchor="start" x="303.2812" y="-15.4" font-family="sans-serif" font-size="14.00" fill="#000000"> &#160;Bootstrap</text>
<polygon fill="#fdb462" stroke="transparent" points="376.5,-10 376.5,-30 396.5,-30 396.5,-10 376.5,-10"/>
<text text-anchor="start" x="400.1732" y="-15.4" font-family="sans-serif" font-size="14.00" fill="#000000"> &#160;Providers</text>
<polygon fill="#fb8072" stroke="transparent" points="472.5,-10 472.5,-30 492.5,-30 492.5,-10 472.5,-10"/>
<text text-anchor="start" x="496.2258" y="-15.4" font-family="sans-serif" font-size="14.00" fill="#000000"> &#160;Exports</text>
<g id="clust1" class="cluster">
<title>cluster_ComponentsModule</title>
<polygon fill="none" stroke="#000000" stroke-dasharray="1,5" points="8,-70 8,-268 621,-268 621,-70 8,-70"/>
</g>
<g id="clust2" class="cluster">
<title>cluster_ComponentsModule_declarations</title>
<polygon fill="none" stroke="#000000" points="16,-78 16,-130 613,-130 613,-78 16,-78"/>
</g>
<g id="clust8" class="cluster">
<title>cluster_ComponentsModule_exports</title>
<polygon fill="none" stroke="#000000" points="255,-208 255,-260 395,-260 395,-208 255,-208"/>
</g>
<!-- LayoutComponent -->
<g id="node1" class="node">
<title>LayoutComponent</title>
<polygon fill="#ffffb3" stroke="#000000" points="605.4902,-122 484.5098,-122 484.5098,-86 605.4902,-86 605.4902,-122"/>
<text text-anchor="middle" x="545" y="-99.8" font-family="Times,serif" font-size="14.00" fill="#000000">LayoutComponent</text>
</g>
<!-- ComponentsModule -->
<g id="node5" class="node">
<title>ComponentsModule</title>
<polygon fill="#8dd3c7" stroke="#000000" points="390.3272,-187 387.3272,-191 366.3272,-191 363.3272,-187 259.6728,-187 259.6728,-151 390.3272,-151 390.3272,-187"/>
<text text-anchor="middle" x="325" y="-164.8" font-family="Times,serif" font-size="14.00" fill="#000000">ComponentsModule</text>
</g>
<!-- LayoutComponent&#45;&gt;ComponentsModule -->
<g id="edge1" class="edge">
<title>LayoutComponent&#45;&gt;ComponentsModule</title>
<path fill="none" stroke="#000000" d="M545,-122.1061C545,-141.3391 545,-169 545,-169 545,-169 400.4116,-169 400.4116,-169"/>
<polygon fill="#000000" stroke="#000000" points="400.4116,-165.5001 390.4116,-169 400.4116,-172.5001 400.4116,-165.5001"/>
</g>
<!-- TopBarComponent -->
<g id="node2" class="node">
<title>TopBarComponent</title>
<polygon fill="#ffffb3" stroke="#000000" points="466.0968,-122 341.9032,-122 341.9032,-86 466.0968,-86 466.0968,-122"/>
<text text-anchor="middle" x="404" y="-99.8" font-family="Times,serif" font-size="14.00" fill="#000000">TopBarComponent</text>
</g>
<!-- TopBarComponent&#45;&gt;ComponentsModule -->
<g id="edge2" class="edge">
<title>TopBarComponent&#45;&gt;ComponentsModule</title>
<path fill="none" stroke="#000000" d="M366.0575,-122.1061C366.0575,-122.1061 366.0575,-140.991 366.0575,-140.991"/>
<polygon fill="#000000" stroke="#000000" points="362.5576,-140.9909 366.0575,-150.991 369.5576,-140.991 362.5576,-140.9909"/>
</g>
<!-- MainContentComponent -->
<g id="node3" class="node">
<title>MainContentComponent</title>
<polygon fill="#ffffb3" stroke="#000000" points="323.7147,-122 168.2853,-122 168.2853,-86 323.7147,-86 323.7147,-122"/>
<text text-anchor="middle" x="246" y="-99.8" font-family="Times,serif" font-size="14.00" fill="#000000">MainContentComponent</text>
</g>
<!-- MainContentComponent&#45;&gt;ComponentsModule -->
<g id="edge3" class="edge">
<title>MainContentComponent&#45;&gt;ComponentsModule</title>
<path fill="none" stroke="#000000" d="M291.722,-122.1061C291.722,-122.1061 291.722,-140.991 291.722,-140.991"/>
<polygon fill="#000000" stroke="#000000" points="288.222,-140.9909 291.722,-150.991 295.222,-140.991 288.222,-140.9909"/>
</g>
<!-- SideBarComponent -->
<g id="node4" class="node">
<title>SideBarComponent</title>
<polygon fill="#ffffb3" stroke="#000000" points="150.4327,-122 23.5673,-122 23.5673,-86 150.4327,-86 150.4327,-122"/>
<text text-anchor="middle" x="87" y="-99.8" font-family="Times,serif" font-size="14.00" fill="#000000">SideBarComponent</text>
</g>
<!-- SideBarComponent&#45;&gt;ComponentsModule -->
<g id="edge4" class="edge">
<title>SideBarComponent&#45;&gt;ComponentsModule</title>
<path fill="none" stroke="#000000" d="M87,-122.1061C87,-141.3391 87,-169 87,-169 87,-169 249.6507,-169 249.6507,-169"/>
<polygon fill="#000000" stroke="#000000" points="249.6507,-172.5001 259.6507,-169 249.6506,-165.5001 249.6507,-172.5001"/>
</g>
<!-- LayoutComponent  -->
<g id="node6" class="node">
<title>LayoutComponent </title>
<polygon fill="#fb8072" stroke="#000000" points="387.4912,-252 262.5088,-252 262.5088,-216 387.4912,-216 387.4912,-252"/>
<text text-anchor="middle" x="325" y="-229.8" font-family="Times,serif" font-size="14.00" fill="#000000">LayoutComponent </text>
</g>
<!-- ComponentsModule&#45;&gt;LayoutComponent  -->
<g id="edge5" class="edge">
<title>ComponentsModule&#45;&gt;LayoutComponent </title>
<path fill="none" stroke="#000000" stroke-dasharray="5,2" d="M325,-187.1061C325,-187.1061 325,-205.991 325,-205.991"/>
<polygon fill="#000000" stroke="#000000" points="321.5001,-205.9909 325,-215.991 328.5001,-205.991 321.5001,-205.9909"/>
</g>
</g>
</svg>
