<?xml version="1.0" encoding="UTF-8" standalone="no"?>
<!DOCTYPE svg PUBLIC "-//W3C//DTD SVG 1.1//EN"
 "http://www.w3.org/Graphics/SVG/1.1/DTD/svg11.dtd">
<!-- Generated by graphviz version 2.40.1 (20161225.0304)
 -->
<!-- Title: dependencies Pages: 1 -->
<svg width="903pt" height="284pt"
 viewBox="0.00 0.00 903.00 284.00" xmlns="http://www.w3.org/2000/svg" xmlns:xlink="http://www.w3.org/1999/xlink">
<g id="graph0" class="graph" transform="scale(1 1) rotate(0) translate(4 280)">
<title>dependencies</title>
<polygon fill="#ffffff" stroke="transparent" points="-4,4 -4,-280 899,-280 899,4 -4,4"/>
<text text-anchor="start" x="426.5091" y="-42.4" font-family="sans-serif" font-weight="bold" font-size="14.00" fill="#000000">Legend</text>
<polygon fill="#ffffb3" stroke="transparent" points="213.5,-10 213.5,-30 233.5,-30 233.5,-10 213.5,-10"/>
<text text-anchor="start" x="237.129" y="-15.4" font-family="sans-serif" font-size="14.00" fill="#000000"> &#160;Declarations</text>
<polygon fill="#8dd3c7" stroke="transparent" points="326.5,-10 326.5,-30 346.5,-30 346.5,-10 326.5,-10"/>
<text text-anchor="start" x="350.2251" y="-15.4" font-family="sans-serif" font-size="14.00" fill="#000000"> &#160;Module</text>
<polygon fill="#80b1d3" stroke="transparent" points="412.5,-10 412.5,-30 432.5,-30 432.5,-10 412.5,-10"/>
<text text-anchor="start" x="436.2812" y="-15.4" font-family="sans-serif" font-size="14.00" fill="#000000"> &#160;Bootstrap</text>
<polygon fill="#fdb462" stroke="transparent" points="509.5,-10 509.5,-30 529.5,-30 529.5,-10 509.5,-10"/>
<text text-anchor="start" x="533.1732" y="-15.4" font-family="sans-serif" font-size="14.00" fill="#000000"> &#160;Providers</text>
<polygon fill="#fb8072" stroke="transparent" points="605.5,-10 605.5,-30 625.5,-30 625.5,-10 605.5,-10"/>
<text text-anchor="start" x="629.2258" y="-15.4" font-family="sans-serif" font-size="14.00" fill="#000000"> &#160;Exports</text>
<g id="clust1" class="cluster">
<title>cluster_LayoutModule</title>
<polygon fill="none" stroke="#000000" stroke-dasharray="1,5" points="8,-70 8,-268 887,-268 887,-70 8,-70"/>
</g>
<g id="clust2" class="cluster">
<title>cluster_LayoutModule_declarations</title>
<polygon fill="none" stroke="#000000" points="426,-78 426,-130 879,-130 879,-78 426,-78"/>
</g>
<g id="clust6" class="cluster">
<title>cluster_LayoutModule_imports</title>
<polygon fill="none" stroke="#000000" points="16,-78 16,-130 418,-130 418,-78 16,-78"/>
</g>
<g id="clust7" class="cluster">
<title>cluster_LayoutModule_exports</title>
<polygon fill="none" stroke="#000000" points="363,-208 363,-260 503,-260 503,-208 363,-208"/>
</g>
<!-- LayoutComponent -->
<g id="node1" class="node">
<title>LayoutComponent</title>
<polygon fill="#ffffb3" stroke="#000000" points="871.4902,-122 750.5098,-122 750.5098,-86 871.4902,-86 871.4902,-122"/>
<text text-anchor="middle" x="811" y="-99.8" font-family="Times,serif" font-size="14.00" fill="#000000">LayoutComponent</text>
</g>
<!-- LayoutModule -->
<g id="node4" class="node">
<title>LayoutModule</title>
<polygon fill="#8dd3c7" stroke="#000000" points="482.7078,-187 479.7078,-191 458.7078,-191 455.7078,-187 383.2922,-187 383.2922,-151 482.7078,-151 482.7078,-187"/>
<text text-anchor="middle" x="433" y="-164.8" font-family="Times,serif" font-size="14.00" fill="#000000">LayoutModule</text>
</g>
<!-- LayoutComponent&#45;&gt;LayoutModule -->
<g id="edge1" class="edge">
<title>LayoutComponent&#45;&gt;LayoutModule</title>
<path fill="none" stroke="#000000" d="M811,-122.2843C811,-143.3211 811,-175 811,-175 811,-175 492.8056,-175 492.8056,-175"/>
<polygon fill="#000000" stroke="#000000" points="492.8056,-171.5001 482.8056,-175 492.8056,-178.5001 492.8056,-171.5001"/>
</g>
<!-- TopBarComponent -->
<g id="node2" class="node">
<title>TopBarComponent</title>
<polygon fill="#ffffb3" stroke="#000000" points="732.0968,-122 607.9032,-122 607.9032,-86 732.0968,-86 732.0968,-122"/>
<text text-anchor="middle" x="670" y="-99.8" font-family="Times,serif" font-size="14.00" fill="#000000">TopBarComponent</text>
</g>
<!-- TopBarComponent&#45;&gt;LayoutModule -->
<g id="edge2" class="edge">
<title>TopBarComponent&#45;&gt;LayoutModule</title>
<path fill="none" stroke="#000000" d="M670,-122.0225C670,-139.3734 670,-163 670,-163 670,-163 492.683,-163 492.683,-163"/>
<polygon fill="#000000" stroke="#000000" points="492.683,-159.5001 482.683,-163 492.6829,-166.5001 492.683,-159.5001"/>
</g>
<!-- MainContentComponent -->
<g id="node3" class="node">
<title>MainContentComponent</title>
<polygon fill="#ffffb3" stroke="#000000" points="589.7147,-122 434.2853,-122 434.2853,-86 589.7147,-86 589.7147,-122"/>
<text text-anchor="middle" x="512" y="-99.8" font-family="Times,serif" font-size="14.00" fill="#000000">MainContentComponent</text>
</g>
<!-- MainContentComponent&#45;&gt;LayoutModule -->
<g id="edge3" class="edge">
<title>MainContentComponent&#45;&gt;LayoutModule</title>
<path fill="none" stroke="#000000" d="M458.4983,-122.1061C458.4983,-122.1061 458.4983,-140.991 458.4983,-140.991"/>
<polygon fill="#000000" stroke="#000000" points="454.9983,-140.9909 458.4983,-150.991 461.9983,-140.991 454.9983,-140.9909"/>
</g>
<!-- LayoutComponent  -->
<g id="node8" class="node">
<title>LayoutComponent </title>
<polygon fill="#fb8072" stroke="#000000" points="495.4912,-252 370.5088,-252 370.5088,-216 495.4912,-216 495.4912,-252"/>
<text text-anchor="middle" x="433" y="-229.8" font-family="Times,serif" font-size="14.00" fill="#000000">LayoutComponent </text>
</g>
<!-- LayoutModule&#45;&gt;LayoutComponent  -->
<g id="edge7" class="edge">
<title>LayoutModule&#45;&gt;LayoutComponent </title>
<path fill="none" stroke="#000000" stroke-dasharray="5,2" d="M433,-187.1061C433,-187.1061 433,-205.991 433,-205.991"/>
<polygon fill="#000000" stroke="#000000" points="429.5001,-205.9909 433,-215.991 436.5001,-205.991 429.5001,-205.9909"/>
</g>
<!-- CommonModule -->
<g id="node5" class="node">
<title>CommonModule</title>
<polygon fill="#8dd3c7" stroke="#000000" points="409.6681,-122 406.6681,-126 385.6681,-126 382.6681,-122 298.3319,-122 298.3319,-86 409.6681,-86 409.6681,-122"/>
<text text-anchor="middle" x="354" y="-99.8" font-family="Times,serif" font-size="14.00" fill="#000000">CommonModule</text>
</g>
<!-- CommonModule&#45;&gt;LayoutModule -->
<g id="edge4" class="edge">
<title>CommonModule&#45;&gt;LayoutModule</title>
<path fill="none" stroke="#000000" d="M396.615,-122.1061C396.615,-122.1061 396.615,-140.991 396.615,-140.991"/>
<polygon fill="#000000" stroke="#000000" points="393.1151,-140.9909 396.615,-150.991 400.1151,-140.991 393.1151,-140.9909"/>
</g>
<!-- HomeModule -->
<g id="node6" class="node">
<title>HomeModule</title>
<polygon fill="#8dd3c7" stroke="#000000" points="279.7619,-122 276.7619,-126 255.7619,-126 252.7619,-122 186.2381,-122 186.2381,-86 279.7619,-86 279.7619,-122"/>
<text text-anchor="middle" x="233" y="-99.8" font-family="Times,serif" font-size="14.00" fill="#000000">HomeModule</text>
</g>
<!-- HomeModule&#45;&gt;LayoutModule -->
<g id="edge5" class="edge">
<title>HomeModule&#45;&gt;LayoutModule</title>
<path fill="none" stroke="#000000" d="M233,-122.0225C233,-139.3734 233,-163 233,-163 233,-163 373.3048,-163 373.3048,-163"/>
<polygon fill="#000000" stroke="#000000" points="373.3049,-166.5001 383.3048,-163 373.3048,-159.5001 373.3049,-166.5001"/>
</g>
<!-- LayoutRoutingModule -->
<g id="node7" class="node">
<title>LayoutRoutingModule</title>
<polygon fill="#8dd3c7" stroke="#000000" points="168.3258,-122 165.3258,-126 144.3258,-126 141.3258,-122 23.6742,-122 23.6742,-86 168.3258,-86 168.3258,-122"/>
<text text-anchor="middle" x="96" y="-99.8" font-family="Times,serif" font-size="14.00" fill="#000000">LayoutRoutingModule</text>
</g>
<!-- LayoutRoutingModule&#45;&gt;LayoutModule -->
<g id="edge6" class="edge">
<title>LayoutRoutingModule&#45;&gt;LayoutModule</title>
<path fill="none" stroke="#000000" d="M96,-122.2843C96,-143.3211 96,-175 96,-175 96,-175 373.2745,-175 373.2745,-175"/>
<polygon fill="#000000" stroke="#000000" points="373.2745,-178.5001 383.2745,-175 373.2745,-171.5001 373.2745,-178.5001"/>
</g>
</g>
</svg>
