<?xml version="1.0" encoding="UTF-8" standalone="no"?>
<!DOCTYPE svg PUBLIC "-//W3C//DTD SVG 1.1//EN"
 "http://www.w3.org/Graphics/SVG/1.1/DTD/svg11.dtd">
<!-- Generated by graphviz version 2.40.1 (20161225.0304)
 -->
<!-- Title: dependencies Pages: 1 -->
<svg width="898pt" height="284pt"
 viewBox="0.00 0.00 898.00 284.00" xmlns="http://www.w3.org/2000/svg" xmlns:xlink="http://www.w3.org/1999/xlink">
<g id="graph0" class="graph" transform="scale(1 1) rotate(0) translate(4 280)">
<title>dependencies</title>
<polygon fill="#ffffff" stroke="transparent" points="-4,4 -4,-280 894,-280 894,4 -4,4"/>
<text text-anchor="start" x="424.0091" y="-42.4" font-family="sans-serif" font-weight="bold" font-size="14.00" fill="#000000">Legend</text>
<polygon fill="#ffffb3" stroke="transparent" points="211,-10 211,-30 231,-30 231,-10 211,-10"/>
<text text-anchor="start" x="234.629" y="-15.4" font-family="sans-serif" font-size="14.00" fill="#000000"> &#160;Declarations</text>
<polygon fill="#8dd3c7" stroke="transparent" points="324,-10 324,-30 344,-30 344,-10 324,-10"/>
<text text-anchor="start" x="347.7251" y="-15.4" font-family="sans-serif" font-size="14.00" fill="#000000"> &#160;Module</text>
<polygon fill="#80b1d3" stroke="transparent" points="410,-10 410,-30 430,-30 430,-10 410,-10"/>
<text text-anchor="start" x="433.7812" y="-15.4" font-family="sans-serif" font-size="14.00" fill="#000000"> &#160;Bootstrap</text>
<polygon fill="#fdb462" stroke="transparent" points="507,-10 507,-30 527,-30 527,-10 507,-10"/>
<text text-anchor="start" x="530.6732" y="-15.4" font-family="sans-serif" font-size="14.00" fill="#000000"> &#160;Providers</text>
<polygon fill="#fb8072" stroke="transparent" points="603,-10 603,-30 623,-30 623,-10 603,-10"/>
<text text-anchor="start" x="626.7258" y="-15.4" font-family="sans-serif" font-size="14.00" fill="#000000"> &#160;Exports</text>
<g id="clust1" class="cluster">
<title>cluster_LayoutModule</title>
<polygon fill="none" stroke="#000000" stroke-dasharray="1,5" points="8,-70 8,-268 882,-268 882,-70 8,-70"/>
</g>
<g id="clust2" class="cluster">
<title>cluster_LayoutModule_declarations</title>
<polygon fill="none" stroke="#000000" points="146,-78 146,-130 874,-130 874,-78 146,-78"/>
</g>
<g id="clust8" class="cluster">
<title>cluster_LayoutModule_imports</title>
<polygon fill="none" stroke="#000000" points="16,-78 16,-130 138,-130 138,-78 16,-78"/>
</g>
<g id="clust9" class="cluster">
<title>cluster_LayoutModule_exports</title>
<polygon fill="none" stroke="#000000" points="395,-208 395,-260 535,-260 535,-208 395,-208"/>
</g>
<!-- LayoutComponent -->
<g id="node1" class="node">
<title>LayoutComponent</title>
<polygon fill="#ffffb3" stroke="#000000" points="866.4902,-122 745.5098,-122 745.5098,-86 866.4902,-86 866.4902,-122"/>
<text text-anchor="middle" x="806" y="-99.8" font-family="Times,serif" font-size="14.00" fill="#000000">LayoutComponent</text>
</g>
<!-- LayoutModule -->
<g id="node6" class="node">
<title>LayoutModule</title>
<polygon fill="#8dd3c7" stroke="#000000" points="514.7078,-187 511.7078,-191 490.7078,-191 487.7078,-187 415.2922,-187 415.2922,-151 514.7078,-151 514.7078,-187"/>
<text text-anchor="middle" x="465" y="-164.8" font-family="Times,serif" font-size="14.00" fill="#000000">LayoutModule</text>
</g>
<!-- LayoutComponent&#45;&gt;LayoutModule -->
<g id="edge1" class="edge">
<title>LayoutComponent&#45;&gt;LayoutModule</title>
<path fill="none" stroke="#000000" d="M806,-122.2843C806,-143.3211 806,-175 806,-175 806,-175 524.9495,-175 524.9495,-175"/>
<polygon fill="#000000" stroke="#000000" points="524.9496,-171.5001 514.9495,-175 524.9495,-178.5001 524.9496,-171.5001"/>
</g>
<!-- TopbarComponent -->
<g id="node2" class="node">
<title>TopbarComponent</title>
<polygon fill="#ffffb3" stroke="#000000" points="727.7604,-122 606.2396,-122 606.2396,-86 727.7604,-86 727.7604,-122"/>
<text text-anchor="middle" x="667" y="-99.8" font-family="Times,serif" font-size="14.00" fill="#000000">TopbarComponent</text>
</g>
<!-- TopbarComponent&#45;&gt;LayoutModule -->
<g id="edge2" class="edge">
<title>TopbarComponent&#45;&gt;LayoutModule</title>
<path fill="none" stroke="#000000" d="M667,-122.0225C667,-139.3734 667,-163 667,-163 667,-163 524.6735,-163 524.6735,-163"/>
<polygon fill="#000000" stroke="#000000" points="524.6735,-159.5001 514.6735,-163 524.6734,-166.5001 524.6735,-159.5001"/>
</g>
<!-- MainComponent -->
<g id="node3" class="node">
<title>MainComponent</title>
<polygon fill="#ffffb3" stroke="#000000" points="588.3823,-122 477.6177,-122 477.6177,-86 588.3823,-86 588.3823,-122"/>
<text text-anchor="middle" x="533" y="-99.8" font-family="Times,serif" font-size="14.00" fill="#000000">MainComponent</text>
</g>
<!-- MainComponent&#45;&gt;LayoutModule -->
<g id="edge3" class="edge">
<title>MainComponent&#45;&gt;LayoutModule</title>
<path fill="none" stroke="#000000" d="M496.0814,-122.1061C496.0814,-122.1061 496.0814,-140.991 496.0814,-140.991"/>
<polygon fill="#000000" stroke="#000000" points="492.5814,-140.9909 496.0814,-150.991 499.5814,-140.991 492.5814,-140.9909"/>
</g>
<!-- SidebarComponent -->
<g id="node4" class="node">
<title>SidebarComponent</title>
<polygon fill="#ffffb3" stroke="#000000" points="460.0954,-122 335.9046,-122 335.9046,-86 460.0954,-86 460.0954,-122"/>
<text text-anchor="middle" x="398" y="-99.8" font-family="Times,serif" font-size="14.00" fill="#000000">SidebarComponent</text>
</g>
<!-- SidebarComponent&#45;&gt;LayoutModule -->
<g id="edge4" class="edge">
<title>SidebarComponent&#45;&gt;LayoutModule</title>
<path fill="none" stroke="#000000" d="M437.722,-122.1061C437.722,-122.1061 437.722,-140.991 437.722,-140.991"/>
<polygon fill="#000000" stroke="#000000" points="434.222,-140.9909 437.722,-150.991 441.222,-140.991 434.222,-140.9909"/>
</g>
<!-- SidebarProjectComponent -->
<g id="node5" class="node">
<title>SidebarProjectComponent</title>
<polygon fill="#ffffb3" stroke="#000000" points="317.7492,-122 154.2508,-122 154.2508,-86 317.7492,-86 317.7492,-122"/>
<text text-anchor="middle" x="236" y="-99.8" font-family="Times,serif" font-size="14.00" fill="#000000">SidebarProjectComponent</text>
</g>
<!-- SidebarProjectComponent&#45;&gt;LayoutModule -->
<g id="edge5" class="edge">
<title>SidebarProjectComponent&#45;&gt;LayoutModule</title>
<path fill="none" stroke="#000000" d="M236,-122.0225C236,-139.3734 236,-163 236,-163 236,-163 405.3104,-163 405.3104,-163"/>
<polygon fill="#000000" stroke="#000000" points="405.3104,-166.5001 415.3104,-163 405.3104,-159.5001 405.3104,-166.5001"/>
</g>
<!-- LayoutComponent  -->
<g id="node8" class="node">
<title>LayoutComponent </title>
<polygon fill="#fb8072" stroke="#000000" points="527.4912,-252 402.5088,-252 402.5088,-216 527.4912,-216 527.4912,-252"/>
<text text-anchor="middle" x="465" y="-229.8" font-family="Times,serif" font-size="14.00" fill="#000000">LayoutComponent </text>
</g>
<!-- LayoutModule&#45;&gt;LayoutComponent  -->
<g id="edge7" class="edge">
<title>LayoutModule&#45;&gt;LayoutComponent </title>
<path fill="none" stroke="#000000" stroke-dasharray="5,2" d="M465,-187.1061C465,-187.1061 465,-205.991 465,-205.991"/>
<polygon fill="#000000" stroke="#000000" points="461.5001,-205.9909 465,-215.991 468.5001,-205.991 461.5001,-205.9909"/>
</g>
<!-- WidgetsModule -->
<g id="node7" class="node">
<title>WidgetsModule</title>
<polygon fill="#8dd3c7" stroke="#000000" points="130.205,-122 127.205,-126 106.205,-126 103.205,-122 23.795,-122 23.795,-86 130.205,-86 130.205,-122"/>
<text text-anchor="middle" x="77" y="-99.8" font-family="Times,serif" font-size="14.00" fill="#000000">WidgetsModule</text>
</g>
<!-- WidgetsModule&#45;&gt;LayoutModule -->
<g id="edge6" class="edge">
<title>WidgetsModule&#45;&gt;LayoutModule</title>
<path fill="none" stroke="#000000" d="M77,-122.2843C77,-143.3211 77,-175 77,-175 77,-175 405.0701,-175 405.0701,-175"/>
<polygon fill="#000000" stroke="#000000" points="405.0701,-178.5001 415.0701,-175 405.0701,-171.5001 405.0701,-178.5001"/>
</g>
</g>
</svg>
