<?xml version="1.0" encoding="UTF-8" standalone="no"?>
<!DOCTYPE svg PUBLIC "-//W3C//DTD SVG 1.1//EN"
 "http://www.w3.org/Graphics/SVG/1.1/DTD/svg11.dtd">
<!-- Generated by graphviz version 2.40.1 (20161225.0304)
 -->
<!-- Title: dependencies Pages: 1 -->
<svg width="1026pt" height="284pt"
 viewBox="0.00 0.00 1026.00 284.00" xmlns="http://www.w3.org/2000/svg" xmlns:xlink="http://www.w3.org/1999/xlink">
<g id="graph0" class="graph" transform="scale(1 1) rotate(0) translate(4 280)">
<title>dependencies</title>
<polygon fill="#ffffff" stroke="transparent" points="-4,4 -4,-280 1022,-280 1022,4 -4,4"/>
<text text-anchor="start" x="488.0091" y="-42.4" font-family="sans-serif" font-weight="bold" font-size="14.00" fill="#000000">Legend</text>
<polygon fill="#ffffb3" stroke="transparent" points="275,-10 275,-30 295,-30 295,-10 275,-10"/>
<text text-anchor="start" x="298.629" y="-15.4" font-family="sans-serif" font-size="14.00" fill="#000000"> &#160;Declarations</text>
<polygon fill="#8dd3c7" stroke="transparent" points="388,-10 388,-30 408,-30 408,-10 388,-10"/>
<text text-anchor="start" x="411.7251" y="-15.4" font-family="sans-serif" font-size="14.00" fill="#000000"> &#160;Module</text>
<polygon fill="#80b1d3" stroke="transparent" points="474,-10 474,-30 494,-30 494,-10 474,-10"/>
<text text-anchor="start" x="497.7812" y="-15.4" font-family="sans-serif" font-size="14.00" fill="#000000"> &#160;Bootstrap</text>
<polygon fill="#fdb462" stroke="transparent" points="571,-10 571,-30 591,-30 591,-10 571,-10"/>
<text text-anchor="start" x="594.6732" y="-15.4" font-family="sans-serif" font-size="14.00" fill="#000000"> &#160;Providers</text>
<polygon fill="#fb8072" stroke="transparent" points="667,-10 667,-30 687,-30 687,-10 667,-10"/>
<text text-anchor="start" x="690.7258" y="-15.4" font-family="sans-serif" font-size="14.00" fill="#000000"> &#160;Exports</text>
<g id="clust1" class="cluster">
<title>cluster_LayoutModule</title>
<polygon fill="none" stroke="#000000" stroke-dasharray="1,5" points="8,-70 8,-268 1010,-268 1010,-70 8,-70"/>
</g>
<g id="clust2" class="cluster">
<title>cluster_LayoutModule_declarations</title>
<polygon fill="none" stroke="#000000" points="138,-78 138,-130 1002,-130 1002,-78 138,-78"/>
</g>
<g id="clust9" class="cluster">
<title>cluster_LayoutModule_imports</title>
<polygon fill="none" stroke="#000000" points="16,-78 16,-130 130,-130 130,-78 16,-78"/>
</g>
<g id="clust10" class="cluster">
<title>cluster_LayoutModule_exports</title>
<polygon fill="none" stroke="#000000" points="456,-208 456,-260 596,-260 596,-208 456,-208"/>
</g>
<!-- LayoutComponent -->
<g id="node1" class="node">
<title>LayoutComponent</title>
<polygon fill="#ffffb3" stroke="#000000" points="994.4902,-122 873.5098,-122 873.5098,-86 994.4902,-86 994.4902,-122"/>
<text text-anchor="middle" x="934" y="-99.8" font-family="Times,serif" font-size="14.00" fill="#000000">LayoutComponent</text>
</g>
<!-- LayoutModule -->
<g id="node7" class="node">
<title>LayoutModule</title>
<polygon fill="#8dd3c7" stroke="#000000" points="575.7078,-187 572.7078,-191 551.7078,-191 548.7078,-187 476.2922,-187 476.2922,-151 575.7078,-151 575.7078,-187"/>
<text text-anchor="middle" x="526" y="-164.8" font-family="Times,serif" font-size="14.00" fill="#000000">LayoutModule</text>
</g>
<!-- LayoutComponent&#45;&gt;LayoutModule -->
<g id="edge1" class="edge">
<title>LayoutComponent&#45;&gt;LayoutModule</title>
<path fill="none" stroke="#000000" d="M934,-122.2921C934,-144.2057 934,-178 934,-178 934,-178 585.6209,-178 585.6209,-178"/>
<polygon fill="#000000" stroke="#000000" points="585.6209,-174.5001 575.6209,-178 585.6209,-181.5001 585.6209,-174.5001"/>
</g>
<!-- TopbarComponent -->
<g id="node2" class="node">
<title>TopbarComponent</title>
<polygon fill="#ffffb3" stroke="#000000" points="855.7604,-122 734.2396,-122 734.2396,-86 855.7604,-86 855.7604,-122"/>
<text text-anchor="middle" x="795" y="-99.8" font-family="Times,serif" font-size="14.00" fill="#000000">TopbarComponent</text>
</g>
<!-- TopbarComponent&#45;&gt;LayoutModule -->
<g id="edge2" class="edge">
<title>TopbarComponent&#45;&gt;LayoutModule</title>
<path fill="none" stroke="#000000" d="M795,-122.1061C795,-141.3391 795,-169 795,-169 795,-169 585.6522,-169 585.6522,-169"/>
<polygon fill="#000000" stroke="#000000" points="585.6523,-165.5001 575.6522,-169 585.6522,-172.5001 585.6523,-165.5001"/>
</g>
<!-- MainComponent -->
<g id="node3" class="node">
<title>MainComponent</title>
<polygon fill="#ffffb3" stroke="#000000" points="716.3823,-122 605.6177,-122 605.6177,-86 716.3823,-86 716.3823,-122"/>
<text text-anchor="middle" x="661" y="-99.8" font-family="Times,serif" font-size="14.00" fill="#000000">MainComponent</text>
</g>
<!-- MainComponent&#45;&gt;LayoutModule -->
<g id="edge3" class="edge">
<title>MainComponent&#45;&gt;LayoutModule</title>
<path fill="none" stroke="#000000" d="M661,-122.027C661,-138.3976 661,-160 661,-160 661,-160 585.8855,-160 585.8855,-160"/>
<polygon fill="#000000" stroke="#000000" points="585.8855,-156.5001 575.8855,-160 585.8854,-163.5001 585.8855,-156.5001"/>
</g>
<!-- SidebarComponent -->
<g id="node4" class="node">
<title>SidebarComponent</title>
<polygon fill="#ffffb3" stroke="#000000" points="588.0954,-122 463.9046,-122 463.9046,-86 588.0954,-86 588.0954,-122"/>
<text text-anchor="middle" x="526" y="-99.8" font-family="Times,serif" font-size="14.00" fill="#000000">SidebarComponent</text>
</g>
<!-- SidebarComponent&#45;&gt;LayoutModule -->
<g id="edge4" class="edge">
<title>SidebarComponent&#45;&gt;LayoutModule</title>
<path fill="none" stroke="#000000" d="M526,-122.1061C526,-122.1061 526,-140.991 526,-140.991"/>
<polygon fill="#000000" stroke="#000000" points="522.5001,-140.9909 526,-150.991 529.5001,-140.991 522.5001,-140.9909"/>
</g>
<!-- SidebarProjectComponent -->
<g id="node5" class="node">
<title>SidebarProjectComponent</title>
<polygon fill="#ffffb3" stroke="#000000" points="445.7492,-122 282.2508,-122 282.2508,-86 445.7492,-86 445.7492,-122"/>
<text text-anchor="middle" x="364" y="-99.8" font-family="Times,serif" font-size="14.00" fill="#000000">SidebarProjectComponent</text>
</g>
<!-- SidebarProjectComponent&#45;&gt;LayoutModule -->
<g id="edge5" class="edge">
<title>SidebarProjectComponent&#45;&gt;LayoutModule</title>
<path fill="none" stroke="#000000" d="M364,-122.027C364,-138.3976 364,-160 364,-160 364,-160 466.0728,-160 466.0728,-160"/>
<polygon fill="#000000" stroke="#000000" points="466.0728,-163.5001 476.0728,-160 466.0728,-156.5001 466.0728,-163.5001"/>
</g>
<!-- FooterComponent -->
<g id="node6" class="node">
<title>FooterComponent</title>
<polygon fill="#ffffb3" stroke="#000000" points="263.8809,-122 146.1191,-122 146.1191,-86 263.8809,-86 263.8809,-122"/>
<text text-anchor="middle" x="205" y="-99.8" font-family="Times,serif" font-size="14.00" fill="#000000">FooterComponent</text>
</g>
<!-- FooterComponent&#45;&gt;LayoutModule -->
<g id="edge6" class="edge">
<title>FooterComponent&#45;&gt;LayoutModule</title>
<path fill="none" stroke="#000000" d="M205,-122.1061C205,-141.3391 205,-169 205,-169 205,-169 466.196,-169 466.196,-169"/>
<polygon fill="#000000" stroke="#000000" points="466.196,-172.5001 476.196,-169 466.1959,-165.5001 466.196,-172.5001"/>
</g>
<!-- LayoutComponent  -->
<g id="node9" class="node">
<title>LayoutComponent </title>
<polygon fill="#fb8072" stroke="#000000" points="588.4912,-252 463.5088,-252 463.5088,-216 588.4912,-216 588.4912,-252"/>
<text text-anchor="middle" x="526" y="-229.8" font-family="Times,serif" font-size="14.00" fill="#000000">LayoutComponent </text>
</g>
<!-- LayoutModule&#45;&gt;LayoutComponent  -->
<g id="edge8" class="edge">
<title>LayoutModule&#45;&gt;LayoutComponent </title>
<path fill="none" stroke="#000000" stroke-dasharray="5,2" d="M526,-187.1061C526,-187.1061 526,-205.991 526,-205.991"/>
<polygon fill="#000000" stroke="#000000" points="522.5001,-205.9909 526,-215.991 529.5001,-205.991 522.5001,-205.9909"/>
</g>
<!-- SharedModule -->
<g id="node8" class="node">
<title>SharedModule</title>
<polygon fill="#8dd3c7" stroke="#000000" points="122.4231,-122 119.4231,-126 98.4231,-126 95.4231,-122 23.5769,-122 23.5769,-86 122.4231,-86 122.4231,-122"/>
<text text-anchor="middle" x="73" y="-99.8" font-family="Times,serif" font-size="14.00" fill="#000000">SharedModule</text>
</g>
<!-- SharedModule&#45;&gt;LayoutModule -->
<g id="edge7" class="edge">
<title>SharedModule&#45;&gt;LayoutModule</title>
<path fill="none" stroke="#000000" d="M73,-122.2921C73,-144.2057 73,-178 73,-178 73,-178 466.2252,-178 466.2252,-178"/>
<polygon fill="#000000" stroke="#000000" points="466.2253,-181.5001 476.2252,-178 466.2252,-174.5001 466.2253,-181.5001"/>
</g>
</g>
</svg>
