<?xml version="1.0" encoding="UTF-8" standalone="no"?>
<!DOCTYPE svg PUBLIC "-//W3C//DTD SVG 1.1//EN"
 "http://www.w3.org/Graphics/SVG/1.1/DTD/svg11.dtd">
<!-- Generated by graphviz version 2.40.1 (20161225.0304)
 -->
<!-- Title: dependencies Pages: 1 -->
<svg width="504pt" height="211pt"
 viewBox="0.00 0.00 504.00 211.00" xmlns="http://www.w3.org/2000/svg" xmlns:xlink="http://www.w3.org/1999/xlink">
<g id="graph0" class="graph" transform="scale(1 1) rotate(0) translate(4 207)">
<title>dependencies</title>
<polygon fill="#ffffff" stroke="transparent" points="-4,4 -4,-207 500,-207 500,4 -4,4"/>
<text text-anchor="start" x="227.0091" y="-42.4" font-family="sans-serif" font-weight="bold" font-size="14.00" fill="#000000">Legend</text>
<polygon fill="#ffffb3" stroke="transparent" points="14,-10 14,-30 34,-30 34,-10 14,-10"/>
<text text-anchor="start" x="37.629" y="-15.4" font-family="sans-serif" font-size="14.00" fill="#000000"> &#160;Declarations</text>
<polygon fill="#8dd3c7" stroke="transparent" points="127,-10 127,-30 147,-30 147,-10 127,-10"/>
<text text-anchor="start" x="150.7251" y="-15.4" font-family="sans-serif" font-size="14.00" fill="#000000"> &#160;Module</text>
<polygon fill="#80b1d3" stroke="transparent" points="213,-10 213,-30 233,-30 233,-10 213,-10"/>
<text text-anchor="start" x="236.7812" y="-15.4" font-family="sans-serif" font-size="14.00" fill="#000000"> &#160;Bootstrap</text>
<polygon fill="#fdb462" stroke="transparent" points="310,-10 310,-30 330,-30 330,-10 310,-10"/>
<text text-anchor="start" x="333.6732" y="-15.4" font-family="sans-serif" font-size="14.00" fill="#000000"> &#160;Providers</text>
<polygon fill="#fb8072" stroke="transparent" points="406,-10 406,-30 426,-30 426,-10 406,-10"/>
<text text-anchor="start" x="429.7258" y="-15.4" font-family="sans-serif" font-size="14.00" fill="#000000"> &#160;Exports</text>
<g id="clust1" class="cluster">
<title>cluster_AnalyticsModule</title>
<polygon fill="none" stroke="#000000" stroke-dasharray="1,5" points="74,-70 74,-195 422,-195 422,-70 74,-70"/>
</g>
<g id="clust2" class="cluster">
<title>cluster_AnalyticsModule_declarations</title>
<polygon fill="none" stroke="#000000" points="264,-78 264,-130 414,-130 414,-78 264,-78"/>
</g>
<g id="clust4" class="cluster">
<title>cluster_AnalyticsModule_imports</title>
<polygon fill="none" stroke="#000000" points="82,-78 82,-130 256,-130 256,-78 82,-78"/>
</g>
<!-- AnalyticsComponent -->
<g id="node1" class="node">
<title>AnalyticsComponent</title>
<polygon fill="#ffffb3" stroke="#000000" points="406.4846,-122 271.5154,-122 271.5154,-86 406.4846,-86 406.4846,-122"/>
<text text-anchor="middle" x="339" y="-99.8" font-family="Times,serif" font-size="14.00" fill="#000000">AnalyticsComponent</text>
</g>
<!-- AnalyticsModule -->
<g id="node2" class="node">
<title>AnalyticsModule</title>
<polygon fill="#8dd3c7" stroke="#000000" points="310.7022,-187 307.7022,-191 286.7022,-191 283.7022,-187 197.2978,-187 197.2978,-151 310.7022,-151 310.7022,-187"/>
<text text-anchor="middle" x="254" y="-164.8" font-family="Times,serif" font-size="14.00" fill="#000000">AnalyticsModule</text>
</g>
<!-- AnalyticsComponent&#45;&gt;AnalyticsModule -->
<g id="edge1" class="edge">
<title>AnalyticsComponent&#45;&gt;AnalyticsModule</title>
<path fill="none" stroke="#000000" d="M291.0544,-122.1061C291.0544,-122.1061 291.0544,-140.991 291.0544,-140.991"/>
<polygon fill="#000000" stroke="#000000" points="287.5544,-140.9909 291.0544,-150.991 294.5544,-140.991 287.5544,-140.9909"/>
</g>
<!-- AnalyticsRoutingModule -->
<g id="node3" class="node">
<title>AnalyticsRoutingModule</title>
<polygon fill="#8dd3c7" stroke="#000000" points="248.3201,-122 245.3201,-126 224.3201,-126 221.3201,-122 89.6799,-122 89.6799,-86 248.3201,-86 248.3201,-122"/>
<text text-anchor="middle" x="169" y="-99.8" font-family="Times,serif" font-size="14.00" fill="#000000">AnalyticsRoutingModule</text>
</g>
<!-- AnalyticsRoutingModule&#45;&gt;AnalyticsModule -->
<g id="edge2" class="edge">
<title>AnalyticsRoutingModule&#45;&gt;AnalyticsModule</title>
<path fill="none" stroke="#000000" d="M222.7795,-122.1061C222.7795,-122.1061 222.7795,-140.991 222.7795,-140.991"/>
<polygon fill="#000000" stroke="#000000" points="219.2795,-140.9909 222.7795,-150.991 226.2795,-140.991 219.2795,-140.9909"/>
</g>
</g>
</svg>
