<?xml version="1.0" encoding="UTF-8" standalone="no"?>
<!DOCTYPE svg PUBLIC "-//W3C//DTD SVG 1.1//EN"
 "http://www.w3.org/Graphics/SVG/1.1/DTD/svg11.dtd">
<!-- Generated by graphviz version 2.40.1 (20161225.0304)
 -->
<!-- Title: dependencies Pages: 1 -->
<svg width="504pt" height="211pt"
 viewBox="0.00 0.00 504.00 211.00" xmlns="http://www.w3.org/2000/svg" xmlns:xlink="http://www.w3.org/1999/xlink">
<g id="graph0" class="graph" transform="scale(1 1) rotate(0) translate(4 207)">
<title>dependencies</title>
<polygon fill="#ffffff" stroke="transparent" points="-4,4 -4,-207 500,-207 500,4 -4,4"/>
<text text-anchor="start" x="227.0091" y="-42.4" font-family="sans-serif" font-weight="bold" font-size="14.00" fill="#000000">Legend</text>
<polygon fill="#ffffb3" stroke="transparent" points="14,-10 14,-30 34,-30 34,-10 14,-10"/>
<text text-anchor="start" x="37.629" y="-15.4" font-family="sans-serif" font-size="14.00" fill="#000000"> &#160;Declarations</text>
<polygon fill="#8dd3c7" stroke="transparent" points="127,-10 127,-30 147,-30 147,-10 127,-10"/>
<text text-anchor="start" x="150.7251" y="-15.4" font-family="sans-serif" font-size="14.00" fill="#000000"> &#160;Module</text>
<polygon fill="#80b1d3" stroke="transparent" points="213,-10 213,-30 233,-30 233,-10 213,-10"/>
<text text-anchor="start" x="236.7812" y="-15.4" font-family="sans-serif" font-size="14.00" fill="#000000"> &#160;Bootstrap</text>
<polygon fill="#fdb462" stroke="transparent" points="310,-10 310,-30 330,-30 330,-10 310,-10"/>
<text text-anchor="start" x="333.6732" y="-15.4" font-family="sans-serif" font-size="14.00" fill="#000000"> &#160;Providers</text>
<polygon fill="#fb8072" stroke="transparent" points="406,-10 406,-30 426,-30 426,-10 406,-10"/>
<text text-anchor="start" x="429.7258" y="-15.4" font-family="sans-serif" font-size="14.00" fill="#000000"> &#160;Exports</text>
<g id="clust1" class="cluster">
<title>cluster_AccessDeniedModule</title>
<polygon fill="none" stroke="#000000" stroke-dasharray="1,5" points="47,-70 47,-195 449,-195 449,-70 47,-70"/>
</g>
<g id="clust2" class="cluster">
<title>cluster_AccessDeniedModule_declarations</title>
<polygon fill="none" stroke="#000000" points="263,-78 263,-130 441,-130 441,-78 263,-78"/>
</g>
<g id="clust4" class="cluster">
<title>cluster_AccessDeniedModule_imports</title>
<polygon fill="none" stroke="#000000" points="55,-78 55,-130 255,-130 255,-78 55,-78"/>
</g>
<!-- AccessDeniedComponent -->
<g id="node1" class="node">
<title>AccessDeniedComponent</title>
<polygon fill="#ffffb3" stroke="#000000" points="432.8989,-122 271.1011,-122 271.1011,-86 432.8989,-86 432.8989,-122"/>
<text text-anchor="middle" x="352" y="-99.8" font-family="Times,serif" font-size="14.00" fill="#000000">AccessDeniedComponent</text>
</g>
<!-- AccessDeniedModule -->
<g id="node2" class="node">
<title>AccessDeniedModule</title>
<polygon fill="#8dd3c7" stroke="#000000" points="322.6163,-187 319.6163,-191 298.6163,-191 295.6163,-187 183.3837,-187 183.3837,-151 322.6163,-151 322.6163,-187"/>
<text text-anchor="middle" x="253" y="-164.8" font-family="Times,serif" font-size="14.00" fill="#000000">AccessDeniedModule</text>
</g>
<!-- AccessDeniedComponent&#45;&gt;AccessDeniedModule -->
<g id="edge1" class="edge">
<title>AccessDeniedComponent&#45;&gt;AccessDeniedModule</title>
<path fill="none" stroke="#000000" d="M297.0544,-122.1061C297.0544,-122.1061 297.0544,-140.991 297.0544,-140.991"/>
<polygon fill="#000000" stroke="#000000" points="293.5544,-140.9909 297.0544,-150.991 300.5544,-140.991 293.5544,-140.9909"/>
</g>
<!-- AccessDeniedRoutingModule -->
<g id="node3" class="node">
<title>AccessDeniedRoutingModule</title>
<polygon fill="#8dd3c7" stroke="#000000" points="247.2338,-122 244.2338,-126 223.2338,-126 220.2338,-122 62.7662,-122 62.7662,-86 247.2338,-86 247.2338,-122"/>
<text text-anchor="middle" x="155" y="-99.8" font-family="Times,serif" font-size="14.00" fill="#000000">AccessDeniedRoutingModule</text>
</g>
<!-- AccessDeniedRoutingModule&#45;&gt;AccessDeniedModule -->
<g id="edge2" class="edge">
<title>AccessDeniedRoutingModule&#45;&gt;AccessDeniedModule</title>
<path fill="none" stroke="#000000" d="M215.2795,-122.1061C215.2795,-122.1061 215.2795,-140.991 215.2795,-140.991"/>
<polygon fill="#000000" stroke="#000000" points="211.7795,-140.9909 215.2795,-150.991 218.7795,-140.991 211.7795,-140.9909"/>
</g>
</g>
</svg>
