<?xml version="1.0" encoding="UTF-8" standalone="no"?>
<!DOCTYPE svg PUBLIC "-//W3C//DTD SVG 1.1//EN"
 "http://www.w3.org/Graphics/SVG/1.1/DTD/svg11.dtd">
<!-- Generated by graphviz version 2.40.1 (20161225.0304)
 -->
<!-- Title: dependencies Pages: 1 -->
<svg width="741pt" height="211pt"
 viewBox="0.00 0.00 741.00 211.00" xmlns="http://www.w3.org/2000/svg" xmlns:xlink="http://www.w3.org/1999/xlink">
<g id="graph0" class="graph" transform="scale(1 1) rotate(0) translate(4 207)">
<title>dependencies</title>
<polygon fill="#ffffff" stroke="transparent" points="-4,4 -4,-207 737,-207 737,4 -4,4"/>
<text text-anchor="start" x="345.5091" y="-42.4" font-family="sans-serif" font-weight="bold" font-size="14.00" fill="#000000">Legend</text>
<polygon fill="#ffffb3" stroke="transparent" points="132.5,-10 132.5,-30 152.5,-30 152.5,-10 132.5,-10"/>
<text text-anchor="start" x="156.129" y="-15.4" font-family="sans-serif" font-size="14.00" fill="#000000"> &#160;Declarations</text>
<polygon fill="#8dd3c7" stroke="transparent" points="245.5,-10 245.5,-30 265.5,-30 265.5,-10 245.5,-10"/>
<text text-anchor="start" x="269.2251" y="-15.4" font-family="sans-serif" font-size="14.00" fill="#000000"> &#160;Module</text>
<polygon fill="#80b1d3" stroke="transparent" points="331.5,-10 331.5,-30 351.5,-30 351.5,-10 331.5,-10"/>
<text text-anchor="start" x="355.2812" y="-15.4" font-family="sans-serif" font-size="14.00" fill="#000000"> &#160;Bootstrap</text>
<polygon fill="#fdb462" stroke="transparent" points="428.5,-10 428.5,-30 448.5,-30 448.5,-10 428.5,-10"/>
<text text-anchor="start" x="452.1732" y="-15.4" font-family="sans-serif" font-size="14.00" fill="#000000"> &#160;Providers</text>
<polygon fill="#fb8072" stroke="transparent" points="524.5,-10 524.5,-30 544.5,-30 544.5,-10 524.5,-10"/>
<text text-anchor="start" x="548.2258" y="-15.4" font-family="sans-serif" font-size="14.00" fill="#000000"> &#160;Exports</text>
<g id="clust1" class="cluster">
<title>cluster_ProjectModule</title>
<polygon fill="none" stroke="#000000" stroke-dasharray="1,5" points="8,-70 8,-195 725,-195 725,-70 8,-70"/>
</g>
<g id="clust2" class="cluster">
<title>cluster_ProjectModule_declarations</title>
<polygon fill="none" stroke="#000000" points="519,-78 519,-130 717,-130 717,-78 519,-78"/>
</g>
<g id="clust4" class="cluster">
<title>cluster_ProjectModule_imports</title>
<polygon fill="none" stroke="#000000" points="174,-78 174,-130 511,-130 511,-78 174,-78"/>
</g>
<g id="clust7" class="cluster">
<title>cluster_ProjectModule_providers</title>
<polygon fill="none" stroke="#000000" points="16,-78 16,-130 166,-130 166,-78 16,-78"/>
</g>
<!-- ProjectDashboardComponent -->
<g id="node1" class="node">
<title>ProjectDashboardComponent</title>
<polygon fill="#ffffb3" stroke="#000000" points="708.6274,-122 527.3726,-122 527.3726,-86 708.6274,-86 708.6274,-122"/>
<text text-anchor="middle" x="618" y="-99.8" font-family="Times,serif" font-size="14.00" fill="#000000">ProjectDashboardComponent</text>
</g>
<!-- ProjectModule -->
<g id="node2" class="node">
<title>ProjectModule</title>
<polygon fill="#8dd3c7" stroke="#000000" points="365.7036,-187 362.7036,-191 341.7036,-191 338.7036,-187 266.2964,-187 266.2964,-151 365.7036,-151 365.7036,-187"/>
<text text-anchor="middle" x="316" y="-164.8" font-family="Times,serif" font-size="14.00" fill="#000000">ProjectModule</text>
</g>
<!-- ProjectDashboardComponent&#45;&gt;ProjectModule -->
<g id="edge1" class="edge">
<title>ProjectDashboardComponent&#45;&gt;ProjectModule</title>
<path fill="none" stroke="#000000" d="M618,-122.1061C618,-141.3391 618,-169 618,-169 618,-169 375.8692,-169 375.8692,-169"/>
<polygon fill="#000000" stroke="#000000" points="375.8692,-165.5001 365.8692,-169 375.8691,-172.5001 375.8692,-165.5001"/>
</g>
<!-- ProjectDashboardRoutingModule -->
<g id="node3" class="node">
<title>ProjectDashboardRoutingModule</title>
<polygon fill="#8dd3c7" stroke="#000000" points="503.4622,-122 500.4622,-126 479.4622,-126 476.4622,-122 298.5378,-122 298.5378,-86 503.4622,-86 503.4622,-122"/>
<text text-anchor="middle" x="401" y="-99.8" font-family="Times,serif" font-size="14.00" fill="#000000">ProjectDashboardRoutingModule</text>
</g>
<!-- ProjectDashboardRoutingModule&#45;&gt;ProjectModule -->
<g id="edge2" class="edge">
<title>ProjectDashboardRoutingModule&#45;&gt;ProjectModule</title>
<path fill="none" stroke="#000000" d="M332.0603,-122.1061C332.0603,-122.1061 332.0603,-140.991 332.0603,-140.991"/>
<polygon fill="#000000" stroke="#000000" points="328.5604,-140.9909 332.0603,-150.991 335.5604,-140.991 328.5604,-140.9909"/>
</g>
<!-- SharedModule -->
<g id="node4" class="node">
<title>SharedModule</title>
<polygon fill="#8dd3c7" stroke="#000000" points="280.4231,-122 277.4231,-126 256.4231,-126 253.4231,-122 181.5769,-122 181.5769,-86 280.4231,-86 280.4231,-122"/>
<text text-anchor="middle" x="231" y="-99.8" font-family="Times,serif" font-size="14.00" fill="#000000">SharedModule</text>
</g>
<!-- SharedModule&#45;&gt;ProjectModule -->
<g id="edge3" class="edge">
<title>SharedModule&#45;&gt;ProjectModule</title>
<path fill="none" stroke="#000000" d="M273.3047,-122.1061C273.3047,-122.1061 273.3047,-140.991 273.3047,-140.991"/>
<polygon fill="#000000" stroke="#000000" points="269.8048,-140.9909 273.3047,-150.991 276.8048,-140.991 269.8048,-140.9909"/>
</g>
<!-- ProjectService -->
<g id="node5" class="node">
<title>ProjectService</title>
<ellipse fill="#fdb462" stroke="#000000" cx="91" cy="-104" rx="67.1888" ry="18"/>
<text text-anchor="middle" x="91" y="-99.8" font-family="Times,serif" font-size="14.00" fill="#000000">ProjectService</text>
</g>
<!-- ProjectService&#45;&gt;ProjectModule -->
<g id="edge4" class="edge">
<title>ProjectService&#45;&gt;ProjectModule</title>
<path fill="none" stroke="#000000" d="M91,-122.1061C91,-141.3391 91,-169 91,-169 91,-169 256.3443,-169 256.3443,-169"/>
<polygon fill="#000000" stroke="#000000" points="256.3443,-172.5001 266.3443,-169 256.3442,-165.5001 256.3443,-172.5001"/>
</g>
</g>
</svg>
