<?xml version="1.0" encoding="UTF-8" standalone="no"?>
<!DOCTYPE svg PUBLIC "-//W3C//DTD SVG 1.1//EN"
 "http://www.w3.org/Graphics/SVG/1.1/DTD/svg11.dtd">
<!-- Generated by graphviz version 2.40.1 (20161225.0304)
 -->
<!-- Title: dependencies Pages: 1 -->
<svg width="4265pt" height="284pt"
 viewBox="0.00 0.00 4265.00 284.00" xmlns="http://www.w3.org/2000/svg" xmlns:xlink="http://www.w3.org/1999/xlink">
<g id="graph0" class="graph" transform="scale(1 1) rotate(0) translate(4 280)">
<title>dependencies</title>
<polygon fill="#ffffff" stroke="transparent" points="-4,4 -4,-280 4261,-280 4261,4 -4,4"/>
<text text-anchor="start" x="2107.5091" y="-42.4" font-family="sans-serif" font-weight="bold" font-size="14.00" fill="#000000">Legend</text>
<polygon fill="#ffffb3" stroke="transparent" points="1894.5,-10 1894.5,-30 1914.5,-30 1914.5,-10 1894.5,-10"/>
<text text-anchor="start" x="1918.129" y="-15.4" font-family="sans-serif" font-size="14.00" fill="#000000"> &#160;Declarations</text>
<polygon fill="#8dd3c7" stroke="transparent" points="2007.5,-10 2007.5,-30 2027.5,-30 2027.5,-10 2007.5,-10"/>
<text text-anchor="start" x="2031.2251" y="-15.4" font-family="sans-serif" font-size="14.00" fill="#000000"> &#160;Module</text>
<polygon fill="#80b1d3" stroke="transparent" points="2093.5,-10 2093.5,-30 2113.5,-30 2113.5,-10 2093.5,-10"/>
<text text-anchor="start" x="2117.2812" y="-15.4" font-family="sans-serif" font-size="14.00" fill="#000000"> &#160;Bootstrap</text>
<polygon fill="#fdb462" stroke="transparent" points="2190.5,-10 2190.5,-30 2210.5,-30 2210.5,-10 2190.5,-10"/>
<text text-anchor="start" x="2214.1732" y="-15.4" font-family="sans-serif" font-size="14.00" fill="#000000"> &#160;Providers</text>
<polygon fill="#fb8072" stroke="transparent" points="2286.5,-10 2286.5,-30 2306.5,-30 2306.5,-10 2286.5,-10"/>
<text text-anchor="start" x="2310.2258" y="-15.4" font-family="sans-serif" font-size="14.00" fill="#000000"> &#160;Exports</text>
<g id="clust1" class="cluster">
<title>cluster_ActionsModule</title>
<polygon fill="none" stroke="#000000" stroke-dasharray="1,5" points="8,-70 8,-195 608,-195 608,-70 8,-70"/>
</g>
<g id="clust2" class="cluster">
<title>cluster_ActionsModule_declarations</title>
<polygon fill="none" stroke="#000000" points="188,-78 188,-130 600,-130 600,-78 188,-78"/>
</g>
<g id="clust6" class="cluster">
<title>cluster_ActionsModule_imports</title>
<polygon fill="none" stroke="#000000" points="16,-78 16,-130 180,-130 180,-78 16,-78"/>
</g>
<g id="clust16" class="cluster">
<title>cluster_AnalyticsModule</title>
<polygon fill="none" stroke="#000000" stroke-dasharray="1,5" points="616,-70 616,-195 964,-195 964,-70 616,-70"/>
</g>
<g id="clust17" class="cluster">
<title>cluster_AnalyticsModule_declarations</title>
<polygon fill="none" stroke="#000000" points="806,-78 806,-130 956,-130 956,-78 806,-78"/>
</g>
<g id="clust19" class="cluster">
<title>cluster_AnalyticsModule_imports</title>
<polygon fill="none" stroke="#000000" points="624,-78 624,-130 798,-130 798,-78 624,-78"/>
</g>
<g id="clust29" class="cluster">
<title>cluster_AppModule</title>
<polygon fill="none" stroke="#000000" stroke-dasharray="1,5" points="972,-70 972,-268 1112,-268 1112,-70 972,-70"/>
</g>
<g id="clust30" class="cluster">
<title>cluster_AppModule_declarations</title>
<polygon fill="none" stroke="#000000" points="981,-78 981,-130 1103,-130 1103,-78 981,-78"/>
</g>
<g id="clust34" class="cluster">
<title>cluster_AppModule_bootstrap</title>
<polygon fill="none" stroke="#000000" points="980,-208 980,-260 1104,-260 1104,-208 980,-208"/>
</g>
<g id="clust36" class="cluster">
<title>cluster_ComponentsModule</title>
<polygon fill="none" stroke="#000000" stroke-dasharray="1,5" points="1120,-70 1120,-268 1733,-268 1733,-70 1120,-70"/>
</g>
<g id="clust37" class="cluster">
<title>cluster_ComponentsModule_declarations</title>
<polygon fill="none" stroke="#000000" points="1128,-78 1128,-130 1725,-130 1725,-78 1128,-78"/>
</g>
<g id="clust43" class="cluster">
<title>cluster_ComponentsModule_exports</title>
<polygon fill="none" stroke="#000000" points="1367,-208 1367,-260 1507,-260 1507,-208 1367,-208"/>
</g>
<g id="clust46" class="cluster">
<title>cluster_DashboardModule</title>
<polygon fill="none" stroke="#000000" stroke-dasharray="1,5" points="1741,-70 1741,-195 1915,-195 1915,-70 1741,-70"/>
</g>
<g id="clust47" class="cluster">
<title>cluster_DashboardModule_declarations</title>
<polygon fill="none" stroke="#000000" points="1749,-78 1749,-130 1907,-130 1907,-78 1749,-78"/>
</g>
<g id="clust53" class="cluster">
<title>cluster_HomeModule</title>
<polygon fill="none" stroke="#000000" stroke-dasharray="1,5" points="1923,-70 1923,-195 2233,-195 2233,-70 1923,-70"/>
</g>
<g id="clust54" class="cluster">
<title>cluster_HomeModule_declarations</title>
<polygon fill="none" stroke="#000000" points="2093,-78 2093,-130 2225,-130 2225,-78 2093,-78"/>
</g>
<g id="clust56" class="cluster">
<title>cluster_HomeModule_imports</title>
<polygon fill="none" stroke="#000000" points="1931,-78 1931,-130 2085,-130 2085,-78 1931,-78"/>
</g>
<g id="clust66" class="cluster">
<title>cluster_MediaModule</title>
<polygon fill="none" stroke="#000000" stroke-dasharray="1,5" points="2241,-70 2241,-195 2555,-195 2555,-70 2241,-70"/>
</g>
<g id="clust67" class="cluster">
<title>cluster_MediaModule_declarations</title>
<polygon fill="none" stroke="#000000" points="2413,-78 2413,-130 2547,-130 2547,-78 2413,-78"/>
</g>
<g id="clust69" class="cluster">
<title>cluster_MediaModule_imports</title>
<polygon fill="none" stroke="#000000" points="2249,-78 2249,-130 2405,-130 2405,-78 2249,-78"/>
</g>
<g id="clust79" class="cluster">
<title>cluster_ProfileModule</title>
<polygon fill="none" stroke="#000000" stroke-dasharray="1,5" points="2563,-70 2563,-195 2881,-195 2881,-70 2563,-70"/>
</g>
<g id="clust80" class="cluster">
<title>cluster_ProfileModule_declarations</title>
<polygon fill="none" stroke="#000000" points="2737,-78 2737,-130 2873,-130 2873,-78 2737,-78"/>
</g>
<g id="clust82" class="cluster">
<title>cluster_ProfileModule_imports</title>
<polygon fill="none" stroke="#000000" points="2571,-78 2571,-130 2729,-130 2729,-78 2571,-78"/>
</g>
<g id="clust92" class="cluster">
<title>cluster_SocialModule</title>
<polygon fill="none" stroke="#000000" stroke-dasharray="1,5" points="2889,-70 2889,-195 3201,-195 3201,-70 2889,-70"/>
</g>
<g id="clust93" class="cluster">
<title>cluster_SocialModule_declarations</title>
<polygon fill="none" stroke="#000000" points="3061,-78 3061,-130 3193,-130 3193,-78 3061,-78"/>
</g>
<g id="clust95" class="cluster">
<title>cluster_SocialModule_imports</title>
<polygon fill="none" stroke="#000000" points="2897,-78 2897,-130 3053,-130 3053,-78 2897,-78"/>
</g>
<g id="clust105" class="cluster">
<title>cluster_SubscriptionModule</title>
<polygon fill="none" stroke="#000000" stroke-dasharray="1,5" points="3209,-70 3209,-195 3593,-195 3593,-70 3209,-70"/>
</g>
<g id="clust106" class="cluster">
<title>cluster_SubscriptionModule_declarations</title>
<polygon fill="none" stroke="#000000" points="3417,-78 3417,-130 3585,-130 3585,-78 3417,-78"/>
</g>
<g id="clust108" class="cluster">
<title>cluster_SubscriptionModule_imports</title>
<polygon fill="none" stroke="#000000" points="3217,-78 3217,-130 3409,-130 3409,-78 3217,-78"/>
</g>
<g id="clust118" class="cluster">
<title>cluster_SupportModule</title>
<polygon fill="none" stroke="#000000" stroke-dasharray="1,5" points="3601,-70 3601,-195 3933,-195 3933,-70 3601,-70"/>
</g>
<g id="clust119" class="cluster">
<title>cluster_SupportModule_declarations</title>
<polygon fill="none" stroke="#000000" points="3783,-78 3783,-130 3925,-130 3925,-78 3783,-78"/>
</g>
<g id="clust121" class="cluster">
<title>cluster_SupportModule_imports</title>
<polygon fill="none" stroke="#000000" points="3609,-78 3609,-130 3775,-130 3775,-78 3609,-78"/>
</g>
<g id="clust131" class="cluster">
<title>cluster_TasksModule</title>
<polygon fill="none" stroke="#000000" stroke-dasharray="1,5" points="3941,-70 3941,-195 4249,-195 4249,-70 3941,-70"/>
</g>
<g id="clust132" class="cluster">
<title>cluster_TasksModule_declarations</title>
<polygon fill="none" stroke="#000000" points="4111,-78 4111,-130 4241,-130 4241,-78 4111,-78"/>
</g>
<g id="clust134" class="cluster">
<title>cluster_TasksModule_imports</title>
<polygon fill="none" stroke="#000000" points="3949,-78 3949,-130 4103,-130 4103,-78 3949,-78"/>
</g>
<!-- ActionsComponent -->
<g id="node1" class="node">
<title>ActionsComponent</title>
<polygon fill="#ffffb3" stroke="#000000" points="592.3795,-122 467.6205,-122 467.6205,-86 592.3795,-86 592.3795,-122"/>
<text text-anchor="middle" x="530" y="-99.8" font-family="Times,serif" font-size="14.00" fill="#000000">ActionsComponent</text>
</g>
<!-- ActionsModule -->
<g id="node4" class="node">
<title>ActionsModule</title>
<polygon fill="#8dd3c7" stroke="#000000" points="367.5968,-187 364.5968,-191 343.5968,-191 340.5968,-187 264.4032,-187 264.4032,-151 367.5968,-151 367.5968,-187"/>
<text text-anchor="middle" x="316" y="-164.8" font-family="Times,serif" font-size="14.00" fill="#000000">ActionsModule</text>
</g>
<!-- ActionsComponent&#45;&gt;ActionsModule -->
<g id="edge1" class="edge">
<title>ActionsComponent&#45;&gt;ActionsModule</title>
<path fill="none" stroke="#000000" d="M530,-122.1061C530,-141.3391 530,-169 530,-169 530,-169 377.8034,-169 377.8034,-169"/>
<polygon fill="#000000" stroke="#000000" points="377.8035,-165.5001 367.8034,-169 377.8034,-172.5001 377.8035,-165.5001"/>
</g>
<!-- CalendarComponent -->
<g id="node2" class="node">
<title>CalendarComponent</title>
<polygon fill="#ffffb3" stroke="#000000" points="449.8641,-122 318.1359,-122 318.1359,-86 449.8641,-86 449.8641,-122"/>
<text text-anchor="middle" x="384" y="-99.8" font-family="Times,serif" font-size="14.00" fill="#000000">CalendarComponent</text>
</g>
<!-- CalendarComponent&#45;&gt;ActionsModule -->
<g id="edge2" class="edge">
<title>CalendarComponent&#45;&gt;ActionsModule</title>
<path fill="none" stroke="#000000" d="M342.8082,-122.1061C342.8082,-122.1061 342.8082,-140.991 342.8082,-140.991"/>
<polygon fill="#000000" stroke="#000000" points="339.3083,-140.9909 342.8082,-150.991 346.3083,-140.991 339.3083,-140.9909"/>
</g>
<!-- DayComponent -->
<g id="node3" class="node">
<title>DayComponent</title>
<polygon fill="#ffffb3" stroke="#000000" points="300.1542,-122 195.8458,-122 195.8458,-86 300.1542,-86 300.1542,-122"/>
<text text-anchor="middle" x="248" y="-99.8" font-family="Times,serif" font-size="14.00" fill="#000000">DayComponent</text>
</g>
<!-- DayComponent&#45;&gt;ActionsModule -->
<g id="edge3" class="edge">
<title>DayComponent&#45;&gt;ActionsModule</title>
<path fill="none" stroke="#000000" d="M282.3892,-122.1061C282.3892,-122.1061 282.3892,-140.991 282.3892,-140.991"/>
<polygon fill="#000000" stroke="#000000" points="278.8893,-140.9909 282.3892,-150.991 285.8893,-140.991 278.8893,-140.9909"/>
</g>
<!-- ActionsRoutingModule -->
<g id="node5" class="node">
<title>ActionsRoutingModule</title>
<polygon fill="#8dd3c7" stroke="#000000" points="172.2148,-122 169.2148,-126 148.2148,-126 145.2148,-122 23.7852,-122 23.7852,-86 172.2148,-86 172.2148,-122"/>
<text text-anchor="middle" x="98" y="-99.8" font-family="Times,serif" font-size="14.00" fill="#000000">ActionsRoutingModule</text>
</g>
<!-- ActionsRoutingModule&#45;&gt;ActionsModule -->
<g id="edge4" class="edge">
<title>ActionsRoutingModule&#45;&gt;ActionsModule</title>
<path fill="none" stroke="#000000" d="M98,-122.1061C98,-141.3391 98,-169 98,-169 98,-169 254.337,-169 254.337,-169"/>
<polygon fill="#000000" stroke="#000000" points="254.3371,-172.5001 264.337,-169 254.337,-165.5001 254.3371,-172.5001"/>
</g>
<!-- AnalyticsComponent -->
<g id="node6" class="node">
<title>AnalyticsComponent</title>
<polygon fill="#ffffb3" stroke="#000000" points="948.4846,-122 813.5154,-122 813.5154,-86 948.4846,-86 948.4846,-122"/>
<text text-anchor="middle" x="881" y="-99.8" font-family="Times,serif" font-size="14.00" fill="#000000">AnalyticsComponent</text>
</g>
<!-- AnalyticsModule -->
<g id="node7" class="node">
<title>AnalyticsModule</title>
<polygon fill="#8dd3c7" stroke="#000000" points="852.7022,-187 849.7022,-191 828.7022,-191 825.7022,-187 739.2978,-187 739.2978,-151 852.7022,-151 852.7022,-187"/>
<text text-anchor="middle" x="796" y="-164.8" font-family="Times,serif" font-size="14.00" fill="#000000">AnalyticsModule</text>
</g>
<!-- AnalyticsComponent&#45;&gt;AnalyticsModule -->
<g id="edge5" class="edge">
<title>AnalyticsComponent&#45;&gt;AnalyticsModule</title>
<path fill="none" stroke="#000000" d="M833.0544,-122.1061C833.0544,-122.1061 833.0544,-140.991 833.0544,-140.991"/>
<polygon fill="#000000" stroke="#000000" points="829.5544,-140.9909 833.0544,-150.991 836.5544,-140.991 829.5544,-140.9909"/>
</g>
<!-- AnalyticsRoutingModule -->
<g id="node8" class="node">
<title>AnalyticsRoutingModule</title>
<polygon fill="#8dd3c7" stroke="#000000" points="790.3201,-122 787.3201,-126 766.3201,-126 763.3201,-122 631.6799,-122 631.6799,-86 790.3201,-86 790.3201,-122"/>
<text text-anchor="middle" x="711" y="-99.8" font-family="Times,serif" font-size="14.00" fill="#000000">AnalyticsRoutingModule</text>
</g>
<!-- AnalyticsRoutingModule&#45;&gt;AnalyticsModule -->
<g id="edge6" class="edge">
<title>AnalyticsRoutingModule&#45;&gt;AnalyticsModule</title>
<path fill="none" stroke="#000000" d="M764.7795,-122.1061C764.7795,-122.1061 764.7795,-140.991 764.7795,-140.991"/>
<polygon fill="#000000" stroke="#000000" points="761.2795,-140.9909 764.7795,-150.991 768.2795,-140.991 761.2795,-140.9909"/>
</g>
<!-- AppComponent -->
<g id="node9" class="node">
<title>AppComponent</title>
<polygon fill="#ffffb3" stroke="#000000" points="1094.9399,-122 989.0601,-122 989.0601,-86 1094.9399,-86 1094.9399,-122"/>
<text text-anchor="middle" x="1042" y="-99.8" font-family="Times,serif" font-size="14.00" fill="#000000">AppComponent</text>
</g>
<!-- AppModule -->
<g id="node10" class="node">
<title>AppModule</title>
<polygon fill="#8dd3c7" stroke="#000000" points="1083.6571,-187 1080.6571,-191 1059.6571,-191 1056.6571,-187 1000.3429,-187 1000.3429,-151 1083.6571,-151 1083.6571,-187"/>
<text text-anchor="middle" x="1042" y="-164.8" font-family="Times,serif" font-size="14.00" fill="#000000">AppModule</text>
</g>
<!-- AppComponent&#45;&gt;AppModule -->
<g id="edge7" class="edge">
<title>AppComponent&#45;&gt;AppModule</title>
<path fill="none" stroke="#000000" d="M1042,-122.1061C1042,-122.1061 1042,-140.991 1042,-140.991"/>
<polygon fill="#000000" stroke="#000000" points="1038.5001,-140.9909 1042,-150.991 1045.5001,-140.991 1038.5001,-140.9909"/>
</g>
<!-- AppComponent  -->
<g id="node11" class="node">
<title>AppComponent </title>
<polygon fill="#80b1d3" stroke="#000000" points="1096.439,-252 987.561,-252 987.561,-216 1096.439,-216 1096.439,-252"/>
<text text-anchor="middle" x="1042" y="-229.8" font-family="Times,serif" font-size="14.00" fill="#000000">AppComponent </text>
</g>
<!-- AppModule&#45;&gt;AppComponent  -->
<g id="edge8" class="edge">
<title>AppModule&#45;&gt;AppComponent </title>
<path fill="none" stroke="#000000" stroke-dasharray="1,5" d="M1042,-187.1061C1042,-187.1061 1042,-205.991 1042,-205.991"/>
<polygon fill="#000000" stroke="#000000" points="1038.5001,-205.9909 1042,-215.991 1045.5001,-205.991 1038.5001,-205.9909"/>
</g>
<!-- LayoutComponent -->
<g id="node12" class="node">
<title>LayoutComponent</title>
<polygon fill="#ffffb3" stroke="#000000" points="1717.4902,-122 1596.5098,-122 1596.5098,-86 1717.4902,-86 1717.4902,-122"/>
<text text-anchor="middle" x="1657" y="-99.8" font-family="Times,serif" font-size="14.00" fill="#000000">LayoutComponent</text>
</g>
<!-- ComponentsModule -->
<g id="node16" class="node">
<title>ComponentsModule</title>
<polygon fill="#8dd3c7" stroke="#000000" points="1502.3272,-187 1499.3272,-191 1478.3272,-191 1475.3272,-187 1371.6728,-187 1371.6728,-151 1502.3272,-151 1502.3272,-187"/>
<text text-anchor="middle" x="1437" y="-164.8" font-family="Times,serif" font-size="14.00" fill="#000000">ComponentsModule</text>
</g>
<!-- LayoutComponent&#45;&gt;ComponentsModule -->
<g id="edge9" class="edge">
<title>LayoutComponent&#45;&gt;ComponentsModule</title>
<path fill="none" stroke="#000000" d="M1657,-122.1061C1657,-141.3391 1657,-169 1657,-169 1657,-169 1512.4116,-169 1512.4116,-169"/>
<polygon fill="#000000" stroke="#000000" points="1512.4116,-165.5001 1502.4116,-169 1512.4116,-172.5001 1512.4116,-165.5001"/>
</g>
<!-- TopBarComponent -->
<g id="node13" class="node">
<title>TopBarComponent</title>
<polygon fill="#ffffb3" stroke="#000000" points="1578.0968,-122 1453.9032,-122 1453.9032,-86 1578.0968,-86 1578.0968,-122"/>
<text text-anchor="middle" x="1516" y="-99.8" font-family="Times,serif" font-size="14.00" fill="#000000">TopBarComponent</text>
</g>
<!-- TopBarComponent&#45;&gt;ComponentsModule -->
<g id="edge10" class="edge">
<title>TopBarComponent&#45;&gt;ComponentsModule</title>
<path fill="none" stroke="#000000" d="M1478.0575,-122.1061C1478.0575,-122.1061 1478.0575,-140.991 1478.0575,-140.991"/>
<polygon fill="#000000" stroke="#000000" points="1474.5576,-140.9909 1478.0575,-150.991 1481.5576,-140.991 1474.5576,-140.9909"/>
</g>
<!-- MainContentComponent -->
<g id="node14" class="node">
<title>MainContentComponent</title>
<polygon fill="#ffffb3" stroke="#000000" points="1435.7147,-122 1280.2853,-122 1280.2853,-86 1435.7147,-86 1435.7147,-122"/>
<text text-anchor="middle" x="1358" y="-99.8" font-family="Times,serif" font-size="14.00" fill="#000000">MainContentComponent</text>
</g>
<!-- MainContentComponent&#45;&gt;ComponentsModule -->
<g id="edge11" class="edge">
<title>MainContentComponent&#45;&gt;ComponentsModule</title>
<path fill="none" stroke="#000000" d="M1403.722,-122.1061C1403.722,-122.1061 1403.722,-140.991 1403.722,-140.991"/>
<polygon fill="#000000" stroke="#000000" points="1400.222,-140.9909 1403.722,-150.991 1407.222,-140.991 1400.222,-140.9909"/>
</g>
<!-- SideBarComponent -->
<g id="node15" class="node">
<title>SideBarComponent</title>
<polygon fill="#ffffb3" stroke="#000000" points="1262.4327,-122 1135.5673,-122 1135.5673,-86 1262.4327,-86 1262.4327,-122"/>
<text text-anchor="middle" x="1199" y="-99.8" font-family="Times,serif" font-size="14.00" fill="#000000">SideBarComponent</text>
</g>
<!-- SideBarComponent&#45;&gt;ComponentsModule -->
<g id="edge12" class="edge">
<title>SideBarComponent&#45;&gt;ComponentsModule</title>
<path fill="none" stroke="#000000" d="M1199,-122.1061C1199,-141.3391 1199,-169 1199,-169 1199,-169 1361.6507,-169 1361.6507,-169"/>
<polygon fill="#000000" stroke="#000000" points="1361.6507,-172.5001 1371.6507,-169 1361.6506,-165.5001 1361.6507,-172.5001"/>
</g>
<!-- LayoutComponent  -->
<g id="node17" class="node">
<title>LayoutComponent </title>
<polygon fill="#fb8072" stroke="#000000" points="1499.4912,-252 1374.5088,-252 1374.5088,-216 1499.4912,-216 1499.4912,-252"/>
<text text-anchor="middle" x="1437" y="-229.8" font-family="Times,serif" font-size="14.00" fill="#000000">LayoutComponent </text>
</g>
<!-- ComponentsModule&#45;&gt;LayoutComponent  -->
<g id="edge13" class="edge">
<title>ComponentsModule&#45;&gt;LayoutComponent </title>
<path fill="none" stroke="#000000" stroke-dasharray="5,2" d="M1437,-187.1061C1437,-187.1061 1437,-205.991 1437,-205.991"/>
<polygon fill="#000000" stroke="#000000" points="1433.5001,-205.9909 1437,-215.991 1440.5001,-205.991 1433.5001,-205.9909"/>
</g>
<!-- DashboardComponent -->
<g id="node18" class="node">
<title>DashboardComponent</title>
<polygon fill="#ffffb3" stroke="#000000" points="1898.9734,-122 1757.0266,-122 1757.0266,-86 1898.9734,-86 1898.9734,-122"/>
<text text-anchor="middle" x="1828" y="-99.8" font-family="Times,serif" font-size="14.00" fill="#000000">DashboardComponent</text>
</g>
<!-- DashboardModule -->
<g id="node19" class="node">
<title>DashboardModule</title>
<polygon fill="#8dd3c7" stroke="#000000" points="1888.191,-187 1885.191,-191 1864.191,-191 1861.191,-187 1767.809,-187 1767.809,-151 1888.191,-151 1888.191,-187"/>
<text text-anchor="middle" x="1828" y="-164.8" font-family="Times,serif" font-size="14.00" fill="#000000">DashboardModule</text>
</g>
<!-- DashboardComponent&#45;&gt;DashboardModule -->
<g id="edge14" class="edge">
<title>DashboardComponent&#45;&gt;DashboardModule</title>
<path fill="none" stroke="#000000" d="M1828,-122.1061C1828,-122.1061 1828,-140.991 1828,-140.991"/>
<polygon fill="#000000" stroke="#000000" points="1824.5001,-140.9909 1828,-150.991 1831.5001,-140.991 1824.5001,-140.9909"/>
</g>
<!-- HomeComponent -->
<g id="node20" class="node">
<title>HomeComponent</title>
<polygon fill="#ffffb3" stroke="#000000" points="2216.5451,-122 2101.4549,-122 2101.4549,-86 2216.5451,-86 2216.5451,-122"/>
<text text-anchor="middle" x="2159" y="-99.8" font-family="Times,serif" font-size="14.00" fill="#000000">HomeComponent</text>
</g>
<!-- HomeModule -->
<g id="node21" class="node">
<title>HomeModule</title>
<polygon fill="#8dd3c7" stroke="#000000" points="2129.7619,-187 2126.7619,-191 2105.7619,-191 2102.7619,-187 2036.2381,-187 2036.2381,-151 2129.7619,-151 2129.7619,-187"/>
<text text-anchor="middle" x="2083" y="-164.8" font-family="Times,serif" font-size="14.00" fill="#000000">HomeModule</text>
</g>
<!-- HomeComponent&#45;&gt;HomeModule -->
<g id="edge15" class="edge">
<title>HomeComponent&#45;&gt;HomeModule</title>
<path fill="none" stroke="#000000" d="M2115.5544,-122.1061C2115.5544,-122.1061 2115.5544,-140.991 2115.5544,-140.991"/>
<polygon fill="#000000" stroke="#000000" points="2112.0544,-140.9909 2115.5544,-150.991 2119.0544,-140.991 2112.0544,-140.9909"/>
</g>
<!-- HomeRoutingModule -->
<g id="node22" class="node">
<title>HomeRoutingModule</title>
<polygon fill="#8dd3c7" stroke="#000000" points="2077.3795,-122 2074.3795,-126 2053.3795,-126 2050.3795,-122 1938.6205,-122 1938.6205,-86 2077.3795,-86 2077.3795,-122"/>
<text text-anchor="middle" x="2008" y="-99.8" font-family="Times,serif" font-size="14.00" fill="#000000">HomeRoutingModule</text>
</g>
<!-- HomeRoutingModule&#45;&gt;HomeModule -->
<g id="edge16" class="edge">
<title>HomeRoutingModule&#45;&gt;HomeModule</title>
<path fill="none" stroke="#000000" d="M2056.7795,-122.1061C2056.7795,-122.1061 2056.7795,-140.991 2056.7795,-140.991"/>
<polygon fill="#000000" stroke="#000000" points="2053.2795,-140.9909 2056.7795,-150.991 2060.2795,-140.991 2053.2795,-140.9909"/>
</g>
<!-- MediaComponent -->
<g id="node23" class="node">
<title>MediaComponent</title>
<polygon fill="#ffffb3" stroke="#000000" points="2538.5968,-122 2421.4032,-122 2421.4032,-86 2538.5968,-86 2538.5968,-122"/>
<text text-anchor="middle" x="2480" y="-99.8" font-family="Times,serif" font-size="14.00" fill="#000000">MediaComponent</text>
</g>
<!-- MediaModule -->
<g id="node24" class="node">
<title>MediaModule</title>
<polygon fill="#8dd3c7" stroke="#000000" points="2450.8147,-187 2447.8147,-191 2426.8147,-191 2423.8147,-187 2355.1853,-187 2355.1853,-151 2450.8147,-151 2450.8147,-187"/>
<text text-anchor="middle" x="2403" y="-164.8" font-family="Times,serif" font-size="14.00" fill="#000000">MediaModule</text>
</g>
<!-- MediaComponent&#45;&gt;MediaModule -->
<g id="edge17" class="edge">
<title>MediaComponent&#45;&gt;MediaModule</title>
<path fill="none" stroke="#000000" d="M2436.0544,-122.1061C2436.0544,-122.1061 2436.0544,-140.991 2436.0544,-140.991"/>
<polygon fill="#000000" stroke="#000000" points="2432.5544,-140.9909 2436.0544,-150.991 2439.5544,-140.991 2432.5544,-140.9909"/>
</g>
<!-- MediaRoutingModule -->
<g id="node25" class="node">
<title>MediaRoutingModule</title>
<polygon fill="#8dd3c7" stroke="#000000" points="2397.4327,-122 2394.4327,-126 2373.4327,-126 2370.4327,-122 2256.5673,-122 2256.5673,-86 2397.4327,-86 2397.4327,-122"/>
<text text-anchor="middle" x="2327" y="-99.8" font-family="Times,serif" font-size="14.00" fill="#000000">MediaRoutingModule</text>
</g>
<!-- MediaRoutingModule&#45;&gt;MediaModule -->
<g id="edge18" class="edge">
<title>MediaRoutingModule&#45;&gt;MediaModule</title>
<path fill="none" stroke="#000000" d="M2376.2795,-122.1061C2376.2795,-122.1061 2376.2795,-140.991 2376.2795,-140.991"/>
<polygon fill="#000000" stroke="#000000" points="2372.7795,-140.9909 2376.2795,-150.991 2379.7795,-140.991 2372.7795,-140.9909"/>
</g>
<!-- ProfileComponent -->
<g id="node26" class="node">
<title>ProfileComponent</title>
<polygon fill="#ffffb3" stroke="#000000" points="2864.9328,-122 2745.0672,-122 2745.0672,-86 2864.9328,-86 2864.9328,-122"/>
<text text-anchor="middle" x="2805" y="-99.8" font-family="Times,serif" font-size="14.00" fill="#000000">ProfileComponent</text>
</g>
<!-- ProfileModule -->
<g id="node27" class="node">
<title>ProfileModule</title>
<polygon fill="#8dd3c7" stroke="#000000" points="2775.65,-187 2772.65,-191 2751.65,-191 2748.65,-187 2678.35,-187 2678.35,-151 2775.65,-151 2775.65,-187"/>
<text text-anchor="middle" x="2727" y="-164.8" font-family="Times,serif" font-size="14.00" fill="#000000">ProfileModule</text>
</g>
<!-- ProfileComponent&#45;&gt;ProfileModule -->
<g id="edge19" class="edge">
<title>ProfileComponent&#45;&gt;ProfileModule</title>
<path fill="none" stroke="#000000" d="M2760.5544,-122.1061C2760.5544,-122.1061 2760.5544,-140.991 2760.5544,-140.991"/>
<polygon fill="#000000" stroke="#000000" points="2757.0544,-140.9909 2760.5544,-150.991 2764.0544,-140.991 2757.0544,-140.9909"/>
</g>
<!-- ProfileRoutingModule -->
<g id="node28" class="node">
<title>ProfileRoutingModule</title>
<polygon fill="#8dd3c7" stroke="#000000" points="2721.2674,-122 2718.2674,-126 2697.2674,-126 2694.2674,-122 2578.7326,-122 2578.7326,-86 2721.2674,-86 2721.2674,-122"/>
<text text-anchor="middle" x="2650" y="-99.8" font-family="Times,serif" font-size="14.00" fill="#000000">ProfileRoutingModule</text>
</g>
<!-- ProfileRoutingModule&#45;&gt;ProfileModule -->
<g id="edge20" class="edge">
<title>ProfileRoutingModule&#45;&gt;ProfileModule</title>
<path fill="none" stroke="#000000" d="M2699.7795,-122.1061C2699.7795,-122.1061 2699.7795,-140.991 2699.7795,-140.991"/>
<polygon fill="#000000" stroke="#000000" points="2696.2795,-140.9909 2699.7795,-150.991 2703.2795,-140.991 2696.2795,-140.9909"/>
</g>
<!-- SocialComponent -->
<g id="node29" class="node">
<title>SocialComponent</title>
<polygon fill="#ffffb3" stroke="#000000" points="3185.3259,-122 3068.6741,-122 3068.6741,-86 3185.3259,-86 3185.3259,-122"/>
<text text-anchor="middle" x="3127" y="-99.8" font-family="Times,serif" font-size="14.00" fill="#000000">SocialComponent</text>
</g>
<!-- SocialModule -->
<g id="node30" class="node">
<title>SocialModule</title>
<polygon fill="#8dd3c7" stroke="#000000" points="3098.0439,-187 3095.0439,-191 3074.0439,-191 3071.0439,-187 3003.9561,-187 3003.9561,-151 3098.0439,-151 3098.0439,-187"/>
<text text-anchor="middle" x="3051" y="-164.8" font-family="Times,serif" font-size="14.00" fill="#000000">SocialModule</text>
</g>
<!-- SocialComponent&#45;&gt;SocialModule -->
<g id="edge21" class="edge">
<title>SocialComponent&#45;&gt;SocialModule</title>
<path fill="none" stroke="#000000" d="M3083.5544,-122.1061C3083.5544,-122.1061 3083.5544,-140.991 3083.5544,-140.991"/>
<polygon fill="#000000" stroke="#000000" points="3080.0544,-140.9909 3083.5544,-150.991 3087.0544,-140.991 3080.0544,-140.9909"/>
</g>
<!-- SocialRoutingModule -->
<g id="node31" class="node">
<title>SocialRoutingModule</title>
<polygon fill="#8dd3c7" stroke="#000000" points="3044.661,-122 3041.661,-126 3020.661,-126 3017.661,-122 2905.339,-122 2905.339,-86 3044.661,-86 3044.661,-122"/>
<text text-anchor="middle" x="2975" y="-99.8" font-family="Times,serif" font-size="14.00" fill="#000000">SocialRoutingModule</text>
</g>
<!-- SocialRoutingModule&#45;&gt;SocialModule -->
<g id="edge22" class="edge">
<title>SocialRoutingModule&#45;&gt;SocialModule</title>
<path fill="none" stroke="#000000" d="M3024.2795,-122.1061C3024.2795,-122.1061 3024.2795,-140.991 3024.2795,-140.991"/>
<polygon fill="#000000" stroke="#000000" points="3020.7795,-140.9909 3024.2795,-150.991 3027.7795,-140.991 3020.7795,-140.9909"/>
</g>
<!-- SubscriptionComponent -->
<g id="node32" class="node">
<title>SubscriptionComponent</title>
<polygon fill="#ffffb3" stroke="#000000" points="3577.1066,-122 3424.8934,-122 3424.8934,-86 3577.1066,-86 3577.1066,-122"/>
<text text-anchor="middle" x="3501" y="-99.8" font-family="Times,serif" font-size="14.00" fill="#000000">SubscriptionComponent</text>
</g>
<!-- SubscriptionModule -->
<g id="node33" class="node">
<title>SubscriptionModule</title>
<polygon fill="#8dd3c7" stroke="#000000" points="3472.3244,-187 3469.3244,-191 3448.3244,-191 3445.3244,-187 3341.6756,-187 3341.6756,-151 3472.3244,-151 3472.3244,-187"/>
<text text-anchor="middle" x="3407" y="-164.8" font-family="Times,serif" font-size="14.00" fill="#000000">SubscriptionModule</text>
</g>
<!-- SubscriptionComponent&#45;&gt;SubscriptionModule -->
<g id="edge23" class="edge">
<title>SubscriptionComponent&#45;&gt;SubscriptionModule</title>
<path fill="none" stroke="#000000" d="M3448.5544,-122.1061C3448.5544,-122.1061 3448.5544,-140.991 3448.5544,-140.991"/>
<polygon fill="#000000" stroke="#000000" points="3445.0544,-140.9909 3448.5544,-150.991 3452.0544,-140.991 3445.0544,-140.9909"/>
</g>
<!-- SubscriptionRoutingModule -->
<g id="node34" class="node">
<title>SubscriptionRoutingModule</title>
<polygon fill="#8dd3c7" stroke="#000000" points="3400.9424,-122 3397.9424,-126 3376.9424,-126 3373.9424,-122 3225.0576,-122 3225.0576,-86 3400.9424,-86 3400.9424,-122"/>
<text text-anchor="middle" x="3313" y="-99.8" font-family="Times,serif" font-size="14.00" fill="#000000">SubscriptionRoutingModule</text>
</g>
<!-- SubscriptionRoutingModule&#45;&gt;SubscriptionModule -->
<g id="edge24" class="edge">
<title>SubscriptionRoutingModule&#45;&gt;SubscriptionModule</title>
<path fill="none" stroke="#000000" d="M3371.2795,-122.1061C3371.2795,-122.1061 3371.2795,-140.991 3371.2795,-140.991"/>
<polygon fill="#000000" stroke="#000000" points="3367.7795,-140.9909 3371.2795,-150.991 3374.7795,-140.991 3367.7795,-140.9909"/>
</g>
<!-- SupportComponent -->
<g id="node35" class="node">
<title>SupportComponent</title>
<polygon fill="#ffffb3" stroke="#000000" points="3916.6666,-122 3791.3334,-122 3791.3334,-86 3916.6666,-86 3916.6666,-122"/>
<text text-anchor="middle" x="3854" y="-99.8" font-family="Times,serif" font-size="14.00" fill="#000000">SupportComponent</text>
</g>
<!-- SupportModule -->
<g id="node36" class="node">
<title>SupportModule</title>
<polygon fill="#8dd3c7" stroke="#000000" points="3824.8837,-187 3821.8837,-191 3800.8837,-191 3797.8837,-187 3721.1163,-187 3721.1163,-151 3824.8837,-151 3824.8837,-187"/>
<text text-anchor="middle" x="3773" y="-164.8" font-family="Times,serif" font-size="14.00" fill="#000000">SupportModule</text>
</g>
<!-- SupportComponent&#45;&gt;SupportModule -->
<g id="edge25" class="edge">
<title>SupportComponent&#45;&gt;SupportModule</title>
<path fill="none" stroke="#000000" d="M3808.0544,-122.1061C3808.0544,-122.1061 3808.0544,-140.991 3808.0544,-140.991"/>
<polygon fill="#000000" stroke="#000000" points="3804.5544,-140.9909 3808.0544,-150.991 3811.5544,-140.991 3804.5544,-140.9909"/>
</g>
<!-- SupportRoutingModule -->
<g id="node37" class="node">
<title>SupportRoutingModule</title>
<polygon fill="#8dd3c7" stroke="#000000" points="3766.5014,-122 3763.5014,-126 3742.5014,-126 3739.5014,-122 3617.4986,-122 3617.4986,-86 3766.5014,-86 3766.5014,-122"/>
<text text-anchor="middle" x="3692" y="-99.8" font-family="Times,serif" font-size="14.00" fill="#000000">SupportRoutingModule</text>
</g>
<!-- SupportRoutingModule&#45;&gt;SupportModule -->
<g id="edge26" class="edge">
<title>SupportRoutingModule&#45;&gt;SupportModule</title>
<path fill="none" stroke="#000000" d="M3743.7795,-122.1061C3743.7795,-122.1061 3743.7795,-140.991 3743.7795,-140.991"/>
<polygon fill="#000000" stroke="#000000" points="3740.2795,-140.9909 3743.7795,-150.991 3747.2795,-140.991 3740.2795,-140.9909"/>
</g>
<!-- TasksComponent -->
<g id="node38" class="node">
<title>TasksComponent</title>
<polygon fill="#ffffb3" stroke="#000000" points="4232.9888,-122 4119.0112,-122 4119.0112,-86 4232.9888,-86 4232.9888,-122"/>
<text text-anchor="middle" x="4176" y="-99.8" font-family="Times,serif" font-size="14.00" fill="#000000">TasksComponent</text>
</g>
<!-- TasksModule -->
<g id="node39" class="node">
<title>TasksModule</title>
<polygon fill="#8dd3c7" stroke="#000000" points="4147.2064,-187 4144.2064,-191 4123.2064,-191 4120.2064,-187 4054.7936,-187 4054.7936,-151 4147.2064,-151 4147.2064,-187"/>
<text text-anchor="middle" x="4101" y="-164.8" font-family="Times,serif" font-size="14.00" fill="#000000">TasksModule</text>
</g>
<!-- TasksComponent&#45;&gt;TasksModule -->
<g id="edge27" class="edge">
<title>TasksComponent&#45;&gt;TasksModule</title>
<path fill="none" stroke="#000000" d="M4133.0544,-122.1061C4133.0544,-122.1061 4133.0544,-140.991 4133.0544,-140.991"/>
<polygon fill="#000000" stroke="#000000" points="4129.5544,-140.9909 4133.0544,-150.991 4136.5544,-140.991 4129.5544,-140.9909"/>
</g>
<!-- TasksRoutingModule -->
<g id="node40" class="node">
<title>TasksRoutingModule</title>
<polygon fill="#8dd3c7" stroke="#000000" points="4094.8244,-122 4091.8244,-126 4070.8244,-126 4067.8244,-122 3957.1756,-122 3957.1756,-86 4094.8244,-86 4094.8244,-122"/>
<text text-anchor="middle" x="4026" y="-99.8" font-family="Times,serif" font-size="14.00" fill="#000000">TasksRoutingModule</text>
</g>
<!-- TasksRoutingModule&#45;&gt;TasksModule -->
<g id="edge28" class="edge">
<title>TasksRoutingModule&#45;&gt;TasksModule</title>
<path fill="none" stroke="#000000" d="M4074.7795,-122.1061C4074.7795,-122.1061 4074.7795,-140.991 4074.7795,-140.991"/>
<polygon fill="#000000" stroke="#000000" points="4071.2795,-140.9909 4074.7795,-150.991 4078.2795,-140.991 4071.2795,-140.9909"/>
</g>
</g>
</svg>
